<svg xmlns="http://www.w3.org/2000/svg" viewBox="0 0 32 32" width="32" height="32" shape-rendering="crispEdges">
  <rect x="6" y="2" width="3" height="1" fill="#f17da0"/>
  <rect x="9" y="2" width="14" height="1" fill="#e4b4ec"/>
  <rect x="23" y="2" width="3" height="1" fill="#f17da0"/>
  <rect x="5" y="3" width="22" height="1" fill="#ef7a9c"/>
  <rect x="4" y="4" width="24" height="1" fill="#ee7798"/>
  <rect x="3" y="5" width="26" height="1" fill="#ec7494"/>
  <rect x="2" y="6" width="11" height="1" fill="#ea7190"/>
  <rect x="13" y="6" width="6" height="1" fill="#f7faff"/>
  <rect x="19" y="6" width="11" height="1" fill="#ea7190"/>
  <rect x="2" y="7" width="11" height="1" fill="#e86f8c"/>
  <rect x="13" y="7" width="6" height="1" fill="#f7faff"/>
  <rect x="19" y="7" width="11" height="1" fill="#e86f8c"/>
  <rect x="2" y="8" width="11" height="1" fill="#e76c88"/>
  <rect x="13" y="8" width="6" height="1" fill="#f7faff"/>
  <rect x="19" y="8" width="11" height="1" fill="#e76c88"/>
  <rect x="2" y="9" width="6" height="1" fill="#e56984"/>
  <rect x="8" y="9" width="16" height="1" fill="#f7faff"/>
  <rect x="24" y="9" width="6" height="1" fill="#e56984"/>
  <rect x="2" y="10" width="6" height="1" fill="#e3667f"/>
  <rect x="8" y="10" width="16" height="1" fill="#f7faff"/>
  <rect x="24" y="10" width="6" height="1" fill="#e3667f"/>
  <rect x="2" y="11" width="6" height="1" fill="#e1637b"/>
  <rect x="8" y="11" width="16" height="1" fill="#f7faff"/>
  <rect x="24" y="11" width="6" height="1" fill="#e1637b"/>
  <rect x="2" y="12" width="7" height="1" fill="#df6077"/>
  <rect x="9" y="12" width="14" height="1" fill="#f7faff"/>
  <rect x="23" y="12" width="7" height="1" fill="#df6077"/>
  <rect x="2" y="13" width="7" height="1" fill="#dd5d73"/>
  <rect x="9" y="13" width="14" height="1" fill="#f7faff"/>
  <rect x="23" y="13" width="7" height="1" fill="#dd5d73"/>
  <rect x="2" y="14" width="7" height="1" fill="#dc5a6f"/>
  <rect x="9" y="14" width="4" height="1" fill="#f7faff"/>
  <rect x="13" y="14" width="1" height="1" fill="#a80f14"/>
  <rect x="14" y="14" width="2" height="1" fill="#f7faff"/>
  <rect x="16" y="14" width="1" height="1" fill="#a80f14"/>
  <rect x="17" y="14" width="2" height="1" fill="#f7faff"/>
  <rect x="19" y="14" width="1" height="1" fill="#a80f14"/>
  <rect x="20" y="14" width="3" height="1" fill="#f7faff"/>
  <rect x="23" y="14" width="7" height="1" fill="#dc5a6f"/>
  <rect x="2" y="15" width="8" height="1" fill="#da576a"/>
  <rect x="10" y="15" width="3" height="1" fill="#f7faff"/>
  <rect x="13" y="15" width="1" height="1" fill="#a80f14"/>
  <rect x="14" y="15" width="2" height="1" fill="#f7faff"/>
  <rect x="16" y="15" width="1" height="1" fill="#a80f14"/>
  <rect x="17" y="15" width="2" height="1" fill="#f7faff"/>
  <rect x="19" y="15" width="1" height="1" fill="#a80f14"/>
  <rect x="20" y="15" width="2" height="1" fill="#f7faff"/>
  <rect x="22" y="15" width="8" height="1" fill="#da576a"/>
  <rect x="2" y="16" width="8" height="1" fill="#d85466"/>
  <rect x="10" y="16" width="3" height="1" fill="#f7faff"/>
  <rect x="13" y="16" width="1" height="1" fill="#a80f14"/>
  <rect x="14" y="16" width="2" height="1" fill="#f7faff"/>
  <rect x="16" y="16" width="1" height="1" fill="#a80f14"/>
  <rect x="17" y="16" width="2" height="1" fill="#f7faff"/>
  <rect x="19" y="16" width="1" height="1" fill="#a80f14"/>
  <rect x="20" y="16" width="2" height="1" fill="#f7faff"/>
  <rect x="22" y="16" width="8" height="1" fill="#d85466"/>
  <rect x="2" y="17" width="8" height="1" fill="#d65262"/>
  <rect x="10" y="17" width="3" height="1" fill="#f7faff"/>
  <rect x="13" y="17" width="1" height="1" fill="#a80f14"/>
  <rect x="14" y="17" width="2" height="1" fill="#f7faff"/>
  <rect x="16" y="17" width="1" height="1" fill="#a80f14"/>
  <rect x="17" y="17" width="2" height="1" fill="#f7faff"/>
  <rect x="19" y="17" width="1" height="1" fill="#a80f14"/>
  <rect x="20" y="17" width="2" height="1" fill="#f7faff"/>
  <rect x="22" y="17" width="8" height="1" fill="#d65262"/>
  <rect x="2" y="18" width="8" height="1" fill="#d44f5d"/>
  <rect x="10" y="18" width="3" height="1" fill="#f7faff"/>
  <rect x="13" y="18" width="1" height="1" fill="#a80f14"/>
  <rect x="14" y="18" width="2" height="1" fill="#f7faff"/>
  <rect x="16" y="18" width="1" height="1" fill="#a80f14"/>
  <rect x="17" y="18" width="2" height="1" fill="#f7faff"/>
  <rect x="19" y="18" width="1" height="1" fill="#a80f14"/>
  <rect x="20" y="18" width="2" height="1" fill="#f7faff"/>
  <rect x="22" y="18" width="8" height="1" fill="#d44f5d"/>
  <rect x="2" y="19" width="8" height="1" fill="#d24c59"/>
  <rect x="10" y="19" width="2" height="1" fill="#f7faff"/>
  <rect x="12" y="19" width="1" height="1" fill="#a80f14"/>
  <rect x="13" y="19" width="3" height="1" fill="#f7faff"/>
  <rect x="16" y="19" width="1" height="1" fill="#a80f14"/>
  <rect x="17" y="19" width="3" height="1" fill="#f7faff"/>
  <rect x="20" y="19" width="1" height="1" fill="#a80f14"/>
  <rect x="21" y="19" width="1" height="1" fill="#f7faff"/>
  <rect x="22" y="19" width="8" height="1" fill="#d24c59"/>
  <rect x="2" y="20" width="8" height="1" fill="#d04955"/>
  <rect x="10" y="20" width="2" height="1" fill="#f7faff"/>
  <rect x="12" y="20" width="1" height="1" fill="#a80f14"/>
  <rect x="13" y="20" width="3" height="1" fill="#f7faff"/>
  <rect x="16" y="20" width="1" height="1" fill="#a80f14"/>
  <rect x="17" y="20" width="3" height="1" fill="#f7faff"/>
  <rect x="20" y="20" width="1" height="1" fill="#a80f14"/>
  <rect x="21" y="20" width="1" height="1" fill="#f7faff"/>
  <rect x="22" y="20" width="8" height="1" fill="#d04955"/>
  <rect x="2" y="21" width="8" height="1" fill="#ce4650"/>
  <rect x="10" y="21" width="2" height="1" fill="#f7faff"/>
  <rect x="12" y="21" width="1" height="1" fill="#a80f14"/>
  <rect x="13" y="21" width="3" height="1" fill="#f7faff"/>
  <rect x="16" y="21" width="1" height="1" fill="#a80f14"/>
  <rect x="17" y="21" width="3" height="1" fill="#f7faff"/>
  <rect x="20" y="21" width="1" height="1" fill="#a80f14"/>
  <rect x="21" y="21" width="1" height="1" fill="#f7faff"/>
  <rect x="22" y="21" width="8" height="1" fill="#ce4650"/>
  <rect x="2" y="22" width="9" height="1" fill="#cc434b"/>
  <rect x="11" y="22" width="1" height="1" fill="#f7faff"/>
  <rect x="12" y="22" width="1" height="1" fill="#a80f14"/>
  <rect x="13" y="22" width="3" height="1" fill="#f7faff"/>
  <rect x="16" y="22" width="1" height="1" fill="#a80f14"/>
  <rect x="17" y="22" width="3" height="1" fill="#f7faff"/>
  <rect x="20" y="22" width="1" height="1" fill="#a80f14"/>
  <rect x="21" y="22" width="9" height="1" fill="#cc434b"/>
  <rect x="2" y="23" width="9" height="1" fill="#ca4047"/>
  <rect x="11" y="23" width="1" height="1" fill="#f7faff"/>
  <rect x="12" y="23" width="1" height="1" fill="#a80f14"/>
  <rect x="13" y="23" width="3" height="1" fill="#f7faff"/>
  <rect x="16" y="23" width="1" height="1" fill="#a80f14"/>
  <rect x="17" y="23" width="3" height="1" fill="#f7faff"/>
  <rect x="20" y="23" width="1" height="1" fill="#a80f14"/>
  <rect x="21" y="23" width="9" height="1" fill="#ca4047"/>
  <rect x="2" y="24" width="9" height="1" fill="#c83c42"/>
  <rect x="11" y="24" width="10" height="1" fill="#f7faff"/>
  <rect x="21" y="24" width="9" height="1" fill="#c83c42"/>
  <rect x="2" y="25" width="9" height="1" fill="#c6393d"/>
  <rect x="11" y="25" width="10" height="1" fill="#f7faff"/>
  <rect x="21" y="25" width="9" height="1" fill="#c6393d"/>
  <rect x="3" y="26" width="26" height="1" fill="#c33638"/>
  <rect x="4" y="27" width="24" height="1" fill="#c13333"/>
  <rect x="5" y="28" width="22" height="1" fill="#bf2f2e"/>
  <rect x="6" y="29" width="20" height="1" fill="#bd2c28"/>
</svg>
