<svg xmlns="http://www.w3.org/2000/svg" viewBox="0 0 32 32" width="32" height="32" shape-rendering="crispEdges">
  <rect x="5" y="1" width="22" height="1" fill="#f5b7b0"/>
  <rect x="4" y="2" width="1" height="1" fill="#f4b6b0"/>
  <rect x="5" y="2" width="22" height="1" fill="#e86d61"/>
  <rect x="27" y="2" width="1" height="1" fill="#f4b6b0"/>
  <rect x="3" y="3" width="1" height="1" fill="#f3b5b0"/>
  <rect x="4" y="3" width="24" height="1" fill="#e66b61"/>
  <rect x="28" y="3" width="1" height="1" fill="#f3b5b0"/>
  <rect x="2" y="4" width="1" height="1" fill="#f2b4b1"/>
  <rect x="3" y="4" width="26" height="1" fill="#e46962"/>
  <rect x="29" y="4" width="1" height="1" fill="#f2b4b1"/>
  <rect x="1" y="5" width="1" height="1" fill="#f1b3b1"/>
  <rect x="2" y="5" width="28" height="1" fill="#e26763"/>
  <rect x="30" y="5" width="1" height="1" fill="#f1b3b1"/>
  <rect x="1" y="6" width="30" height="1" fill="#e06564"/>
  <rect x="1" y="7" width="8" height="1" fill="#de6364"/>
  <rect x="9" y="7" width="2" height="1" fill="#2b3648"/>
  <rect x="11" y="7" width="10" height="1" fill="#de6364"/>
  <rect x="21" y="7" width="2" height="1" fill="#2b3648"/>
  <rect x="23" y="7" width="8" height="1" fill="#de6364"/>
  <rect x="1" y="8" width="8" height="1" fill="#db6165"/>
  <rect x="9" y="8" width="2" height="1" fill="#2b3648"/>
  <rect x="11" y="8" width="10" height="1" fill="#db6165"/>
  <rect x="21" y="8" width="2" height="1" fill="#2b3648"/>
  <rect x="23" y="8" width="8" height="1" fill="#db6165"/>
  <rect x="1" y="9" width="6" height="1" fill="#d95f65"/>
  <rect x="7" y="9" width="2" height="1" fill="#f7fafc"/>
  <rect x="9" y="9" width="2" height="1" fill="#2b3648"/>
  <rect x="11" y="9" width="10" height="1" fill="#f7fafc"/>
  <rect x="21" y="9" width="2" height="1" fill="#2b3648"/>
  <rect x="23" y="9" width="2" height="1" fill="#f7fafc"/>
  <rect x="25" y="9" width="6" height="1" fill="#d95f65"/>
  <rect x="1" y="10" width="5" height="1" fill="#d75e66"/>
  <rect x="6" y="10" width="3" height="1" fill="#e0493c"/>
  <rect x="9" y="10" width="2" height="1" fill="#2b3648"/>
  <rect x="11" y="10" width="10" height="1" fill="#e0493c"/>
  <rect x="21" y="10" width="2" height="1" fill="#2b3648"/>
  <rect x="23" y="10" width="3" height="1" fill="#e0493c"/>
  <rect x="26" y="10" width="5" height="1" fill="#d75e66"/>
  <rect x="1" y="11" width="5" height="1" fill="#d55c67"/>
  <rect x="6" y="11" width="3" height="1" fill="#e0493c"/>
  <rect x="9" y="11" width="2" height="1" fill="#2b3648"/>
  <rect x="11" y="11" width="10" height="1" fill="#e0493c"/>
  <rect x="21" y="11" width="2" height="1" fill="#2b3648"/>
  <rect x="23" y="11" width="3" height="1" fill="#e0493c"/>
  <rect x="26" y="11" width="5" height="1" fill="#d55c67"/>
  <rect x="1" y="12" width="5" height="1" fill="#d35a67"/>
  <rect x="6" y="12" width="20" height="1" fill="#e0493c"/>
  <rect x="26" y="12" width="5" height="1" fill="#d35a67"/>
  <rect x="1" y="13" width="5" height="1" fill="#d05868"/>
  <rect x="6" y="13" width="20" height="1" fill="#e0493c"/>
  <rect x="26" y="13" width="5" height="1" fill="#d05868"/>
  <rect x="1" y="14" width="5" height="1" fill="#ce5668"/>
  <rect x="6" y="14" width="20" height="1" fill="#f7fafc"/>
  <rect x="26" y="14" width="5" height="1" fill="#ce5668"/>
  <rect x="1" y="15" width="5" height="1" fill="#cc5569"/>
  <rect x="6" y="15" width="20" height="1" fill="#f7fafc"/>
  <rect x="26" y="15" width="5" height="1" fill="#cc5569"/>
  <rect x="1" y="16" width="5" height="1" fill="#c95369"/>
  <rect x="6" y="16" width="2" height="1" fill="#f7fafc"/>
  <rect x="8" y="16" width="2" height="1" fill="#747f8b"/>
  <rect x="10" y="16" width="3" height="1" fill="#f7fafc"/>
  <rect x="13" y="16" width="2" height="1" fill="#747f8b"/>
  <rect x="15" y="16" width="3" height="1" fill="#f7fafc"/>
  <rect x="18" y="16" width="2" height="1" fill="#747f8b"/>
  <rect x="20" y="16" width="3" height="1" fill="#f7fafc"/>
  <rect x="23" y="16" width="2" height="1" fill="#747f8b"/>
  <rect x="25" y="16" width="1" height="1" fill="#f7fafc"/>
  <rect x="26" y="16" width="5" height="1" fill="#c95369"/>
  <rect x="1" y="17" width="5" height="1" fill="#c7516a"/>
  <rect x="6" y="17" width="2" height="1" fill="#f7fafc"/>
  <rect x="8" y="17" width="2" height="1" fill="#747f8b"/>
  <rect x="10" y="17" width="3" height="1" fill="#f7fafc"/>
  <rect x="13" y="17" width="2" height="1" fill="#747f8b"/>
  <rect x="15" y="17" width="3" height="1" fill="#f7fafc"/>
  <rect x="18" y="17" width="2" height="1" fill="#747f8b"/>
  <rect x="20" y="17" width="3" height="1" fill="#f7fafc"/>
  <rect x="23" y="17" width="2" height="1" fill="#747f8b"/>
  <rect x="25" y="17" width="1" height="1" fill="#f7fafc"/>
  <rect x="26" y="17" width="5" height="1" fill="#c7516a"/>
  <rect x="1" y="18" width="5" height="1" fill="#c54f6a"/>
  <rect x="6" y="18" width="20" height="1" fill="#f7fafc"/>
  <rect x="26" y="18" width="5" height="1" fill="#c54f6a"/>
  <rect x="1" y="19" width="5" height="1" fill="#c24e6b"/>
  <rect x="6" y="19" width="20" height="1" fill="#f7fafc"/>
  <rect x="26" y="19" width="5" height="1" fill="#c24e6b"/>
  <rect x="1" y="20" width="5" height="1" fill="#c04c6b"/>
  <rect x="6" y="20" width="2" height="1" fill="#f7fafc"/>
  <rect x="8" y="20" width="2" height="1" fill="#747f8b"/>
  <rect x="10" y="20" width="3" height="1" fill="#f7fafc"/>
  <rect x="13" y="20" width="2" height="1" fill="#747f8b"/>
  <rect x="15" y="20" width="3" height="1" fill="#f7fafc"/>
  <rect x="18" y="20" width="2" height="1" fill="#747f8b"/>
  <rect x="20" y="20" width="3" height="1" fill="#f7fafc"/>
  <rect x="23" y="20" width="2" height="1" fill="#e0493c"/>
  <rect x="25" y="20" width="1" height="1" fill="#f7fafc"/>
  <rect x="26" y="20" width="5" height="1" fill="#c04c6b"/>
  <rect x="1" y="21" width="5" height="1" fill="#bd4b6c"/>
  <rect x="6" y="21" width="2" height="1" fill="#f7fafc"/>
  <rect x="8" y="21" width="2" height="1" fill="#747f8b"/>
  <rect x="10" y="21" width="3" height="1" fill="#f7fafc"/>
  <rect x="13" y="21" width="2" height="1" fill="#747f8b"/>
  <rect x="15" y="21" width="3" height="1" fill="#f7fafc"/>
  <rect x="18" y="21" width="2" height="1" fill="#747f8b"/>
  <rect x="20" y="21" width="3" height="1" fill="#f7fafc"/>
  <rect x="23" y="21" width="2" height="1" fill="#e0493c"/>
  <rect x="25" y="21" width="1" height="1" fill="#f7fafc"/>
  <rect x="26" y="21" width="5" height="1" fill="#bd4b6c"/>
  <rect x="1" y="22" width="5" height="1" fill="#bb496c"/>
  <rect x="6" y="22" width="20" height="1" fill="#f7fafc"/>
  <rect x="26" y="22" width="5" height="1" fill="#bb496c"/>
  <rect x="1" y="23" width="5" height="1" fill="#b9476c"/>
  <rect x="6" y="23" width="20" height="1" fill="#f7fafc"/>
  <rect x="26" y="23" width="5" height="1" fill="#b9476c"/>
  <rect x="1" y="24" width="5" height="1" fill="#b6466d"/>
  <rect x="6" y="24" width="1" height="1" fill="#2b3648"/>
  <rect x="7" y="24" width="18" height="1" fill="#f7fafc"/>
  <rect x="25" y="24" width="1" height="1" fill="#2b3648"/>
  <rect x="26" y="24" width="5" height="1" fill="#b6466d"/>
  <rect x="1" y="25" width="6" height="1" fill="#b4446d"/>
  <rect x="7" y="25" width="18" height="1" fill="#2b3648"/>
  <rect x="25" y="25" width="6" height="1" fill="#b4446d"/>
  <rect x="1" y="26" width="1" height="1" fill="#773252"/>
  <rect x="2" y="26" width="28" height="1" fill="#b1436d"/>
  <rect x="30" y="26" width="1" height="1" fill="#773252"/>
  <rect x="2" y="27" width="1" height="1" fill="#753152"/>
  <rect x="3" y="27" width="26" height="1" fill="#af416d"/>
  <rect x="29" y="27" width="1" height="1" fill="#753152"/>
  <rect x="3" y="28" width="1" height="1" fill="#733053"/>
  <rect x="4" y="28" width="24" height="1" fill="#ac406e"/>
  <rect x="28" y="28" width="1" height="1" fill="#733053"/>
  <rect x="4" y="29" width="1" height="1" fill="#722f53"/>
  <rect x="5" y="29" width="22" height="1" fill="#aa3e6e"/>
  <rect x="27" y="29" width="1" height="1" fill="#722f53"/>
  <rect x="5" y="30" width="22" height="1" fill="#702e53"/>
</svg>
