<svg xmlns="http://www.w3.org/2000/svg" viewBox="0 0 32 32" width="32" height="32" shape-rendering="crispEdges">
  <rect x="6" y="1" width="20" height="1" fill="#ffffff"/>
  <rect x="4" y="2" width="2" height="1" fill="#ffffff"/>
  <rect x="6" y="2" width="1" height="1" fill="#3b9e5e"/>
  <rect x="7" y="2" width="1" height="1" fill="#3da05f"/>
  <rect x="8" y="2" width="1" height="1" fill="#3ea261"/>
  <rect x="9" y="2" width="1" height="1" fill="#40a462"/>
  <rect x="10" y="2" width="1" height="1" fill="#42a664"/>
  <rect x="11" y="2" width="1" height="1" fill="#43a865"/>
  <rect x="12" y="2" width="1" height="1" fill="#45ab67"/>
  <rect x="13" y="2" width="1" height="1" fill="#46ad69"/>
  <rect x="14" y="2" width="1" height="1" fill="#48af6a"/>
  <rect x="15" y="2" width="1" height="1" fill="#49b16c"/>
  <rect x="16" y="2" width="1" height="1" fill="#4bb36d"/>
  <rect x="17" y="2" width="1" height="1" fill="#4cb56f"/>
  <rect x="18" y="2" width="1" height="1" fill="#4eb771"/>
  <rect x="19" y="2" width="1" height="1" fill="#4fb972"/>
  <rect x="20" y="2" width="1" height="1" fill="#51bb74"/>
  <rect x="21" y="2" width="1" height="1" fill="#52be76"/>
  <rect x="22" y="2" width="1" height="1" fill="#54c077"/>
  <rect x="23" y="2" width="1" height="1" fill="#56c279"/>
  <rect x="24" y="2" width="1" height="1" fill="#57c47a"/>
  <rect x="25" y="2" width="1" height="1" fill="#59c67c"/>
  <rect x="26" y="2" width="2" height="1" fill="#ffffff"/>
  <rect x="3" y="3" width="1" height="1" fill="#ffffff"/>
  <rect x="4" y="3" width="1" height="1" fill="#379859"/>
  <rect x="5" y="3" width="1" height="1" fill="#389a5a"/>
  <rect x="6" y="3" width="1" height="1" fill="#3a9c5c"/>
  <rect x="7" y="3" width="1" height="1" fill="#3b9e5e"/>
  <rect x="8" y="3" width="1" height="1" fill="#3da05f"/>
  <rect x="9" y="3" width="1" height="1" fill="#3ea261"/>
  <rect x="10" y="3" width="1" height="1" fill="#40a462"/>
  <rect x="11" y="3" width="1" height="1" fill="#42a664"/>
  <rect x="12" y="3" width="1" height="1" fill="#43a865"/>
  <rect x="13" y="3" width="1" height="1" fill="#45ab67"/>
  <rect x="14" y="3" width="1" height="1" fill="#46ad69"/>
  <rect x="15" y="3" width="1" height="1" fill="#48af6a"/>
  <rect x="16" y="3" width="1" height="1" fill="#49b16c"/>
  <rect x="17" y="3" width="1" height="1" fill="#4bb36d"/>
  <rect x="18" y="3" width="1" height="1" fill="#4cb56f"/>
  <rect x="19" y="3" width="1" height="1" fill="#4eb771"/>
  <rect x="20" y="3" width="1" height="1" fill="#4fb972"/>
  <rect x="21" y="3" width="1" height="1" fill="#51bb74"/>
  <rect x="22" y="3" width="1" height="1" fill="#52be76"/>
  <rect x="23" y="3" width="1" height="1" fill="#54c077"/>
  <rect x="24" y="3" width="1" height="1" fill="#56c279"/>
  <rect x="25" y="3" width="1" height="1" fill="#57c47a"/>
  <rect x="26" y="3" width="1" height="1" fill="#59c67c"/>
  <rect x="27" y="3" width="1" height="1" fill="#5ac87e"/>
  <rect x="28" y="3" width="1" height="1" fill="#ffffff"/>
  <rect x="2" y="4" width="1" height="1" fill="#ffffff"/>
  <rect x="3" y="4" width="1" height="1" fill="#349456"/>
  <rect x="4" y="4" width="1" height="1" fill="#359657"/>
  <rect x="5" y="4" width="1" height="1" fill="#379859"/>
  <rect x="6" y="4" width="1" height="1" fill="#389a5a"/>
  <rect x="7" y="4" width="1" height="1" fill="#3a9c5c"/>
  <rect x="8" y="4" width="1" height="1" fill="#3b9e5e"/>
  <rect x="9" y="4" width="1" height="1" fill="#3da05f"/>
  <rect x="10" y="4" width="1" height="1" fill="#3ea261"/>
  <rect x="11" y="4" width="1" height="1" fill="#40a462"/>
  <rect x="12" y="4" width="1" height="1" fill="#42a664"/>
  <rect x="13" y="4" width="1" height="1" fill="#43a865"/>
  <rect x="14" y="4" width="1" height="1" fill="#45ab67"/>
  <rect x="15" y="4" width="1" height="1" fill="#46ad69"/>
  <rect x="16" y="4" width="1" height="1" fill="#48af6a"/>
  <rect x="17" y="4" width="1" height="1" fill="#49b16c"/>
  <rect x="18" y="4" width="1" height="1" fill="#4bb36d"/>
  <rect x="19" y="4" width="1" height="1" fill="#4cb56f"/>
  <rect x="20" y="4" width="1" height="1" fill="#4eb771"/>
  <rect x="21" y="4" width="1" height="1" fill="#4fb972"/>
  <rect x="22" y="4" width="1" height="1" fill="#51bb74"/>
  <rect x="23" y="4" width="1" height="1" fill="#52be76"/>
  <rect x="24" y="4" width="1" height="1" fill="#54c077"/>
  <rect x="25" y="4" width="1" height="1" fill="#56c279"/>
  <rect x="26" y="4" width="1" height="1" fill="#57c47a"/>
  <rect x="27" y="4" width="1" height="1" fill="#59c67c"/>
  <rect x="28" y="4" width="1" height="1" fill="#5ac87e"/>
  <rect x="29" y="4" width="1" height="1" fill="#ffffff"/>
  <rect x="2" y="5" width="1" height="1" fill="#309053"/>
  <rect x="3" y="5" width="1" height="1" fill="#329254"/>
  <rect x="4" y="5" width="1" height="1" fill="#349456"/>
  <rect x="5" y="5" width="1" height="1" fill="#359657"/>
  <rect x="6" y="5" width="1" height="1" fill="#379859"/>
  <rect x="7" y="5" width="1" height="1" fill="#389a5a"/>
  <rect x="8" y="5" width="1" height="1" fill="#3a9c5c"/>
  <rect x="9" y="5" width="1" height="1" fill="#3b9e5e"/>
  <rect x="10" y="5" width="1" height="1" fill="#3da05f"/>
  <rect x="11" y="5" width="1" height="1" fill="#3ea261"/>
  <rect x="12" y="5" width="1" height="1" fill="#40a462"/>
  <rect x="13" y="5" width="1" height="1" fill="#42a664"/>
  <rect x="14" y="5" width="1" height="1" fill="#43a865"/>
  <rect x="15" y="5" width="1" height="1" fill="#45ab67"/>
  <rect x="16" y="5" width="1" height="1" fill="#46ad69"/>
  <rect x="17" y="5" width="1" height="1" fill="#48af6a"/>
  <rect x="18" y="5" width="1" height="1" fill="#49b16c"/>
  <rect x="19" y="5" width="1" height="1" fill="#4bb36d"/>
  <rect x="20" y="5" width="1" height="1" fill="#4cb56f"/>
  <rect x="21" y="5" width="1" height="1" fill="#4eb771"/>
  <rect x="22" y="5" width="1" height="1" fill="#4fb972"/>
  <rect x="23" y="5" width="1" height="1" fill="#51bb74"/>
  <rect x="24" y="5" width="1" height="1" fill="#52be76"/>
  <rect x="25" y="5" width="1" height="1" fill="#54c077"/>
  <rect x="26" y="5" width="1" height="1" fill="#56c279"/>
  <rect x="27" y="5" width="1" height="1" fill="#57c47a"/>
  <rect x="28" y="5" width="1" height="1" fill="#59c67c"/>
  <rect x="29" y="5" width="1" height="1" fill="#5ac87e"/>
  <rect x="1" y="6" width="1" height="1" fill="#ffffff"/>
  <rect x="2" y="6" width="1" height="1" fill="#2f8e51"/>
  <rect x="3" y="6" width="1" height="1" fill="#309053"/>
  <rect x="4" y="6" width="1" height="1" fill="#329254"/>
  <rect x="5" y="6" width="1" height="1" fill="#349456"/>
  <rect x="6" y="6" width="1" height="1" fill="#359657"/>
  <rect x="7" y="6" width="1" height="1" fill="#379859"/>
  <rect x="8" y="6" width="1" height="1" fill="#389a5a"/>
  <rect x="9" y="6" width="1" height="1" fill="#3a9c5c"/>
  <rect x="10" y="6" width="1" height="1" fill="#3b9e5e"/>
  <rect x="11" y="6" width="1" height="1" fill="#3da05f"/>
  <rect x="12" y="6" width="1" height="1" fill="#3ea261"/>
  <rect x="13" y="6" width="1" height="1" fill="#40a462"/>
  <rect x="14" y="6" width="1" height="1" fill="#42a664"/>
  <rect x="15" y="6" width="1" height="1" fill="#43a865"/>
  <rect x="16" y="6" width="1" height="1" fill="#45ab67"/>
  <rect x="17" y="6" width="1" height="1" fill="#46ad69"/>
  <rect x="18" y="6" width="1" height="1" fill="#48af6a"/>
  <rect x="19" y="6" width="1" height="1" fill="#49b16c"/>
  <rect x="20" y="6" width="1" height="1" fill="#4bb36d"/>
  <rect x="21" y="6" width="1" height="1" fill="#4cb56f"/>
  <rect x="22" y="6" width="1" height="1" fill="#4eb771"/>
  <rect x="23" y="6" width="1" height="1" fill="#4fb972"/>
  <rect x="24" y="6" width="1" height="1" fill="#51bb74"/>
  <rect x="25" y="6" width="1" height="1" fill="#52be76"/>
  <rect x="26" y="6" width="1" height="1" fill="#54c077"/>
  <rect x="27" y="6" width="1" height="1" fill="#56c279"/>
  <rect x="28" y="6" width="1" height="1" fill="#57c47a"/>
  <rect x="29" y="6" width="1" height="1" fill="#59c67c"/>
  <rect x="30" y="6" width="1" height="1" fill="#ffffff"/>
  <rect x="1" y="7" width="1" height="1" fill="#2c8a4e"/>
  <rect x="2" y="7" width="1" height="1" fill="#2d8c50"/>
  <rect x="3" y="7" width="1" height="1" fill="#2f8e51"/>
  <rect x="4" y="7" width="1" height="1" fill="#309053"/>
  <rect x="5" y="7" width="1" height="1" fill="#329254"/>
  <rect x="6" y="7" width="1" height="1" fill="#349456"/>
  <rect x="7" y="7" width="1" height="1" fill="#359657"/>
  <rect x="8" y="7" width="1" height="1" fill="#379859"/>
  <rect x="9" y="7" width="1" height="1" fill="#389a5a"/>
  <rect x="10" y="7" width="1" height="1" fill="#3a9c5c"/>
  <rect x="11" y="7" width="1" height="1" fill="#3b9e5e"/>
  <rect x="12" y="7" width="1" height="1" fill="#3da05f"/>
  <rect x="13" y="7" width="1" height="1" fill="#3ea261"/>
  <rect x="14" y="7" width="1" height="1" fill="#40a462"/>
  <rect x="15" y="7" width="1" height="1" fill="#42a664"/>
  <rect x="16" y="7" width="1" height="1" fill="#43a865"/>
  <rect x="17" y="7" width="1" height="1" fill="#45ab67"/>
  <rect x="18" y="7" width="1" height="1" fill="#46ad69"/>
  <rect x="19" y="7" width="1" height="1" fill="#48af6a"/>
  <rect x="20" y="7" width="1" height="1" fill="#49b16c"/>
  <rect x="21" y="7" width="1" height="1" fill="#4bb36d"/>
  <rect x="22" y="7" width="1" height="1" fill="#4cb56f"/>
  <rect x="23" y="7" width="1" height="1" fill="#4eb771"/>
  <rect x="24" y="7" width="1" height="1" fill="#4fb972"/>
  <rect x="25" y="7" width="1" height="1" fill="#51bb74"/>
  <rect x="26" y="7" width="1" height="1" fill="#52be76"/>
  <rect x="27" y="7" width="1" height="1" fill="#54c077"/>
  <rect x="28" y="7" width="1" height="1" fill="#56c279"/>
  <rect x="29" y="7" width="1" height="1" fill="#57c47a"/>
  <rect x="30" y="7" width="1" height="1" fill="#59c67c"/>
  <rect x="1" y="8" width="1" height="1" fill="#2a884c"/>
  <rect x="2" y="8" width="1" height="1" fill="#2c8a4e"/>
  <rect x="3" y="8" width="1" height="1" fill="#2d8c50"/>
  <rect x="4" y="8" width="1" height="1" fill="#2f8e51"/>
  <rect x="5" y="8" width="1" height="1" fill="#309053"/>
  <rect x="6" y="8" width="1" height="1" fill="#329254"/>
  <rect x="7" y="8" width="1" height="1" fill="#349456"/>
  <rect x="8" y="8" width="16" height="1" fill="#ffffff"/>
  <rect x="24" y="8" width="1" height="1" fill="#4eb771"/>
  <rect x="25" y="8" width="1" height="1" fill="#4fb972"/>
  <rect x="26" y="8" width="1" height="1" fill="#51bb74"/>
  <rect x="27" y="8" width="1" height="1" fill="#52be76"/>
  <rect x="28" y="8" width="1" height="1" fill="#54c077"/>
  <rect x="29" y="8" width="1" height="1" fill="#56c279"/>
  <rect x="30" y="8" width="1" height="1" fill="#57c47a"/>
  <rect x="1" y="9" width="1" height="1" fill="#29864b"/>
  <rect x="2" y="9" width="1" height="1" fill="#2a884c"/>
  <rect x="3" y="9" width="1" height="1" fill="#2c8a4e"/>
  <rect x="4" y="9" width="1" height="1" fill="#2d8c50"/>
  <rect x="5" y="9" width="1" height="1" fill="#2f8e51"/>
  <rect x="6" y="9" width="1" height="1" fill="#309053"/>
  <rect x="7" y="9" width="18" height="1" fill="#ffffff"/>
  <rect x="25" y="9" width="1" height="1" fill="#4eb771"/>
  <rect x="26" y="9" width="1" height="1" fill="#4fb972"/>
  <rect x="27" y="9" width="1" height="1" fill="#51bb74"/>
  <rect x="28" y="9" width="1" height="1" fill="#52be76"/>
  <rect x="29" y="9" width="1" height="1" fill="#54c077"/>
  <rect x="30" y="9" width="1" height="1" fill="#56c279"/>
  <rect x="1" y="10" width="1" height="1" fill="#278449"/>
  <rect x="2" y="10" width="1" height="1" fill="#29864b"/>
  <rect x="3" y="10" width="1" height="1" fill="#2a884c"/>
  <rect x="4" y="10" width="1" height="1" fill="#2c8a4e"/>
  <rect x="5" y="10" width="1" height="1" fill="#2d8c50"/>
  <rect x="6" y="10" width="2" height="1" fill="#ffffff"/>
  <rect x="8" y="10" width="16" height="1" fill="#10121a"/>
  <rect x="24" y="10" width="2" height="1" fill="#ffffff"/>
  <rect x="26" y="10" width="1" height="1" fill="#4eb771"/>
  <rect x="27" y="10" width="1" height="1" fill="#4fb972"/>
  <rect x="28" y="10" width="1" height="1" fill="#51bb74"/>
  <rect x="29" y="10" width="1" height="1" fill="#52be76"/>
  <rect x="30" y="10" width="1" height="1" fill="#54c077"/>
  <rect x="1" y="11" width="1" height="1" fill="#258248"/>
  <rect x="2" y="11" width="1" height="1" fill="#278449"/>
  <rect x="3" y="11" width="1" height="1" fill="#29864b"/>
  <rect x="4" y="11" width="1" height="1" fill="#2a884c"/>
  <rect x="5" y="11" width="1" height="1" fill="#2c8a4e"/>
  <rect x="6" y="11" width="2" height="1" fill="#ffffff"/>
  <rect x="8" y="11" width="1" height="1" fill="#10121a"/>
  <rect x="9" y="11" width="1" height="1" fill="#329254"/>
  <rect x="10" y="11" width="1" height="1" fill="#349456"/>
  <rect x="11" y="11" width="2" height="1" fill="#ffffff"/>
  <rect x="13" y="11" width="1" height="1" fill="#389a5a"/>
  <rect x="14" y="11" width="1" height="1" fill="#3a9c5c"/>
  <rect x="15" y="11" width="1" height="1" fill="#3b9e5e"/>
  <rect x="16" y="11" width="1" height="1" fill="#3da05f"/>
  <rect x="17" y="11" width="1" height="1" fill="#3ea261"/>
  <rect x="18" y="11" width="1" height="1" fill="#40a462"/>
  <rect x="19" y="11" width="1" height="1" fill="#42a664"/>
  <rect x="20" y="11" width="1" height="1" fill="#43a865"/>
  <rect x="21" y="11" width="1" height="1" fill="#45ab67"/>
  <rect x="22" y="11" width="1" height="1" fill="#46ad69"/>
  <rect x="23" y="11" width="1" height="1" fill="#48af6a"/>
  <rect x="24" y="11" width="2" height="1" fill="#ffffff"/>
  <rect x="26" y="11" width="1" height="1" fill="#10121a"/>
  <rect x="27" y="11" width="1" height="1" fill="#4eb771"/>
  <rect x="28" y="11" width="1" height="1" fill="#4fb972"/>
  <rect x="29" y="11" width="1" height="1" fill="#51bb74"/>
  <rect x="30" y="11" width="1" height="1" fill="#52be76"/>
  <rect x="1" y="12" width="1" height="1" fill="#248046"/>
  <rect x="2" y="12" width="1" height="1" fill="#258248"/>
  <rect x="3" y="12" width="1" height="1" fill="#278449"/>
  <rect x="4" y="12" width="1" height="1" fill="#29864b"/>
  <rect x="5" y="12" width="1" height="1" fill="#2a884c"/>
  <rect x="6" y="12" width="2" height="1" fill="#ffffff"/>
  <rect x="8" y="12" width="1" height="1" fill="#10121a"/>
  <rect x="9" y="12" width="1" height="1" fill="#309053"/>
  <rect x="10" y="12" width="4" height="1" fill="#ffffff"/>
  <rect x="14" y="12" width="1" height="1" fill="#389a5a"/>
  <rect x="15" y="12" width="1" height="1" fill="#3a9c5c"/>
  <rect x="16" y="12" width="1" height="1" fill="#3b9e5e"/>
  <rect x="17" y="12" width="1" height="1" fill="#3da05f"/>
  <rect x="18" y="12" width="1" height="1" fill="#3ea261"/>
  <rect x="19" y="12" width="1" height="1" fill="#40a462"/>
  <rect x="20" y="12" width="1" height="1" fill="#42a664"/>
  <rect x="21" y="12" width="1" height="1" fill="#43a865"/>
  <rect x="22" y="12" width="1" height="1" fill="#45ab67"/>
  <rect x="23" y="12" width="1" height="1" fill="#46ad69"/>
  <rect x="24" y="12" width="2" height="1" fill="#ffffff"/>
  <rect x="26" y="12" width="1" height="1" fill="#10121a"/>
  <rect x="27" y="12" width="1" height="1" fill="#4cb56f"/>
  <rect x="28" y="12" width="1" height="1" fill="#4eb771"/>
  <rect x="29" y="12" width="1" height="1" fill="#4fb972"/>
  <rect x="30" y="12" width="1" height="1" fill="#51bb74"/>
  <rect x="1" y="13" width="1" height="1" fill="#227e45"/>
  <rect x="2" y="13" width="1" height="1" fill="#248046"/>
  <rect x="3" y="13" width="1" height="1" fill="#258248"/>
  <rect x="4" y="13" width="1" height="1" fill="#278449"/>
  <rect x="5" y="13" width="1" height="1" fill="#29864b"/>
  <rect x="6" y="13" width="2" height="1" fill="#ffffff"/>
  <rect x="8" y="13" width="1" height="1" fill="#10121a"/>
  <rect x="9" y="13" width="1" height="1" fill="#2f8e51"/>
  <rect x="10" y="13" width="4" height="1" fill="#ffffff"/>
  <rect x="14" y="13" width="1" height="1" fill="#10121a"/>
  <rect x="15" y="13" width="1" height="1" fill="#389a5a"/>
  <rect x="16" y="13" width="1" height="1" fill="#3a9c5c"/>
  <rect x="17" y="13" width="1" height="1" fill="#3b9e5e"/>
  <rect x="18" y="13" width="1" height="1" fill="#3da05f"/>
  <rect x="19" y="13" width="1" height="1" fill="#3ea261"/>
  <rect x="20" y="13" width="1" height="1" fill="#40a462"/>
  <rect x="21" y="13" width="1" height="1" fill="#42a664"/>
  <rect x="22" y="13" width="1" height="1" fill="#43a865"/>
  <rect x="23" y="13" width="1" height="1" fill="#45ab67"/>
  <rect x="24" y="13" width="2" height="1" fill="#ffffff"/>
  <rect x="26" y="13" width="1" height="1" fill="#10121a"/>
  <rect x="27" y="13" width="1" height="1" fill="#4bb36d"/>
  <rect x="28" y="13" width="1" height="1" fill="#4cb56f"/>
  <rect x="29" y="13" width="1" height="1" fill="#4eb771"/>
  <rect x="30" y="13" width="1" height="1" fill="#4fb972"/>
  <rect x="1" y="14" width="1" height="1" fill="#207c43"/>
  <rect x="2" y="14" width="1" height="1" fill="#227e45"/>
  <rect x="3" y="14" width="1" height="1" fill="#248046"/>
  <rect x="4" y="14" width="1" height="1" fill="#258248"/>
  <rect x="5" y="14" width="1" height="1" fill="#278449"/>
  <rect x="6" y="14" width="2" height="1" fill="#ffffff"/>
  <rect x="8" y="14" width="1" height="1" fill="#10121a"/>
  <rect x="9" y="14" width="1" height="1" fill="#2d8c50"/>
  <rect x="10" y="14" width="1" height="1" fill="#2f8e51"/>
  <rect x="11" y="14" width="2" height="1" fill="#ffffff"/>
  <rect x="13" y="14" width="2" height="1" fill="#10121a"/>
  <rect x="15" y="14" width="1" height="1" fill="#379859"/>
  <rect x="16" y="14" width="1" height="1" fill="#389a5a"/>
  <rect x="17" y="14" width="1" height="1" fill="#3a9c5c"/>
  <rect x="18" y="14" width="1" height="1" fill="#3b9e5e"/>
  <rect x="19" y="14" width="1" height="1" fill="#3da05f"/>
  <rect x="20" y="14" width="1" height="1" fill="#3ea261"/>
  <rect x="21" y="14" width="1" height="1" fill="#40a462"/>
  <rect x="22" y="14" width="1" height="1" fill="#42a664"/>
  <rect x="23" y="14" width="1" height="1" fill="#43a865"/>
  <rect x="24" y="14" width="2" height="1" fill="#ffffff"/>
  <rect x="26" y="14" width="1" height="1" fill="#10121a"/>
  <rect x="27" y="14" width="1" height="1" fill="#49b16c"/>
  <rect x="28" y="14" width="1" height="1" fill="#4bb36d"/>
  <rect x="29" y="14" width="1" height="1" fill="#4cb56f"/>
  <rect x="30" y="14" width="1" height="1" fill="#4eb771"/>
  <rect x="1" y="15" width="1" height="1" fill="#1f7a42"/>
  <rect x="2" y="15" width="1" height="1" fill="#207c43"/>
  <rect x="3" y="15" width="1" height="1" fill="#227e45"/>
  <rect x="4" y="15" width="1" height="1" fill="#248046"/>
  <rect x="5" y="15" width="1" height="1" fill="#258248"/>
  <rect x="6" y="15" width="2" height="1" fill="#ffffff"/>
  <rect x="8" y="15" width="1" height="1" fill="#10121a"/>
  <rect x="9" y="15" width="1" height="1" fill="#2c8a4e"/>
  <rect x="10" y="15" width="1" height="1" fill="#2d8c50"/>
  <rect x="11" y="15" width="1" height="1" fill="#2f8e51"/>
  <rect x="12" y="15" width="2" height="1" fill="#10121a"/>
  <rect x="14" y="15" width="1" height="1" fill="#349456"/>
  <rect x="15" y="15" width="1" height="1" fill="#ffffff"/>
  <rect x="16" y="15" width="1" height="1" fill="#379859"/>
  <rect x="17" y="15" width="1" height="1" fill="#389a5a"/>
  <rect x="18" y="15" width="1" height="1" fill="#3a9c5c"/>
  <rect x="19" y="15" width="1" height="1" fill="#3b9e5e"/>
  <rect x="20" y="15" width="1" height="1" fill="#3da05f"/>
  <rect x="21" y="15" width="1" height="1" fill="#3ea261"/>
  <rect x="22" y="15" width="1" height="1" fill="#40a462"/>
  <rect x="23" y="15" width="1" height="1" fill="#42a664"/>
  <rect x="24" y="15" width="2" height="1" fill="#ffffff"/>
  <rect x="26" y="15" width="1" height="1" fill="#10121a"/>
  <rect x="27" y="15" width="1" height="1" fill="#48af6a"/>
  <rect x="28" y="15" width="1" height="1" fill="#49b16c"/>
  <rect x="29" y="15" width="1" height="1" fill="#4bb36d"/>
  <rect x="30" y="15" width="1" height="1" fill="#4cb56f"/>
  <rect x="1" y="16" width="1" height="1" fill="#1d7840"/>
  <rect x="2" y="16" width="1" height="1" fill="#1f7a42"/>
  <rect x="3" y="16" width="1" height="1" fill="#207c43"/>
  <rect x="4" y="16" width="1" height="1" fill="#227e45"/>
  <rect x="5" y="16" width="1" height="1" fill="#248046"/>
  <rect x="6" y="16" width="2" height="1" fill="#ffffff"/>
  <rect x="8" y="16" width="1" height="1" fill="#10121a"/>
  <rect x="9" y="16" width="1" height="1" fill="#2a884c"/>
  <rect x="10" y="16" width="1" height="1" fill="#2c8a4e"/>
  <rect x="11" y="16" width="1" height="1" fill="#2d8c50"/>
  <rect x="12" y="16" width="1" height="1" fill="#2f8e51"/>
  <rect x="13" y="16" width="1" height="1" fill="#309053"/>
  <rect x="14" y="16" width="3" height="1" fill="#ffffff"/>
  <rect x="17" y="16" width="1" height="1" fill="#379859"/>
  <rect x="18" y="16" width="1" height="1" fill="#389a5a"/>
  <rect x="19" y="16" width="1" height="1" fill="#3a9c5c"/>
  <rect x="20" y="16" width="1" height="1" fill="#3b9e5e"/>
  <rect x="21" y="16" width="1" height="1" fill="#3da05f"/>
  <rect x="22" y="16" width="1" height="1" fill="#3ea261"/>
  <rect x="23" y="16" width="1" height="1" fill="#40a462"/>
  <rect x="24" y="16" width="2" height="1" fill="#ffffff"/>
  <rect x="26" y="16" width="1" height="1" fill="#10121a"/>
  <rect x="27" y="16" width="1" height="1" fill="#46ad69"/>
  <rect x="28" y="16" width="1" height="1" fill="#48af6a"/>
  <rect x="29" y="16" width="1" height="1" fill="#49b16c"/>
  <rect x="30" y="16" width="1" height="1" fill="#4bb36d"/>
  <rect x="1" y="17" width="1" height="1" fill="#1b763f"/>
  <rect x="2" y="17" width="1" height="1" fill="#1d7840"/>
  <rect x="3" y="17" width="1" height="1" fill="#1f7a42"/>
  <rect x="4" y="17" width="1" height="1" fill="#207c43"/>
  <rect x="5" y="17" width="1" height="1" fill="#227e45"/>
  <rect x="6" y="17" width="2" height="1" fill="#ffffff"/>
  <rect x="8" y="17" width="1" height="1" fill="#10121a"/>
  <rect x="9" y="17" width="1" height="1" fill="#29864b"/>
  <rect x="10" y="17" width="1" height="1" fill="#2a884c"/>
  <rect x="11" y="17" width="1" height="1" fill="#2c8a4e"/>
  <rect x="12" y="17" width="1" height="1" fill="#2d8c50"/>
  <rect x="13" y="17" width="4" height="1" fill="#ffffff"/>
  <rect x="17" y="17" width="1" height="1" fill="#10121a"/>
  <rect x="18" y="17" width="1" height="1" fill="#379859"/>
  <rect x="19" y="17" width="1" height="1" fill="#389a5a"/>
  <rect x="20" y="17" width="1" height="1" fill="#3a9c5c"/>
  <rect x="21" y="17" width="1" height="1" fill="#3b9e5e"/>
  <rect x="22" y="17" width="1" height="1" fill="#3da05f"/>
  <rect x="23" y="17" width="1" height="1" fill="#3ea261"/>
  <rect x="24" y="17" width="2" height="1" fill="#ffffff"/>
  <rect x="26" y="17" width="1" height="1" fill="#10121a"/>
  <rect x="27" y="17" width="1" height="1" fill="#45ab67"/>
  <rect x="28" y="17" width="1" height="1" fill="#46ad69"/>
  <rect x="29" y="17" width="1" height="1" fill="#48af6a"/>
  <rect x="30" y="17" width="1" height="1" fill="#49b16c"/>
  <rect x="1" y="18" width="1" height="1" fill="#19743d"/>
  <rect x="2" y="18" width="1" height="1" fill="#1b763f"/>
  <rect x="3" y="18" width="1" height="1" fill="#1d7840"/>
  <rect x="4" y="18" width="1" height="1" fill="#1f7a42"/>
  <rect x="5" y="18" width="1" height="1" fill="#207c43"/>
  <rect x="6" y="18" width="2" height="1" fill="#ffffff"/>
  <rect x="8" y="18" width="1" height="1" fill="#10121a"/>
  <rect x="9" y="18" width="1" height="1" fill="#278449"/>
  <rect x="10" y="18" width="1" height="1" fill="#29864b"/>
  <rect x="11" y="18" width="1" height="1" fill="#2a884c"/>
  <rect x="12" y="18" width="6" height="1" fill="#ffffff"/>
  <rect x="18" y="18" width="1" height="1" fill="#359657"/>
  <rect x="19" y="18" width="1" height="1" fill="#379859"/>
  <rect x="20" y="18" width="1" height="1" fill="#389a5a"/>
  <rect x="21" y="18" width="1" height="1" fill="#3a9c5c"/>
  <rect x="22" y="18" width="1" height="1" fill="#ffffff"/>
  <rect x="23" y="18" width="1" height="1" fill="#3da05f"/>
  <rect x="24" y="18" width="2" height="1" fill="#ffffff"/>
  <rect x="26" y="18" width="1" height="1" fill="#10121a"/>
  <rect x="27" y="18" width="1" height="1" fill="#43a865"/>
  <rect x="28" y="18" width="1" height="1" fill="#45ab67"/>
  <rect x="29" y="18" width="1" height="1" fill="#46ad69"/>
  <rect x="30" y="18" width="1" height="1" fill="#48af6a"/>
  <rect x="1" y="19" width="1" height="1" fill="#18723c"/>
  <rect x="2" y="19" width="1" height="1" fill="#19743d"/>
  <rect x="3" y="19" width="1" height="1" fill="#1b763f"/>
  <rect x="4" y="19" width="1" height="1" fill="#1d7840"/>
  <rect x="5" y="19" width="1" height="1" fill="#1f7a42"/>
  <rect x="6" y="19" width="2" height="1" fill="#ffffff"/>
  <rect x="8" y="19" width="1" height="1" fill="#10121a"/>
  <rect x="9" y="19" width="1" height="1" fill="#258248"/>
  <rect x="10" y="19" width="1" height="1" fill="#278449"/>
  <rect x="11" y="19" width="8" height="1" fill="#ffffff"/>
  <rect x="19" y="19" width="1" height="1" fill="#359657"/>
  <rect x="20" y="19" width="1" height="1" fill="#379859"/>
  <rect x="21" y="19" width="5" height="1" fill="#ffffff"/>
  <rect x="26" y="19" width="1" height="1" fill="#10121a"/>
  <rect x="27" y="19" width="1" height="1" fill="#42a664"/>
  <rect x="28" y="19" width="1" height="1" fill="#43a865"/>
  <rect x="29" y="19" width="1" height="1" fill="#45ab67"/>
  <rect x="30" y="19" width="1" height="1" fill="#46ad69"/>
  <rect x="1" y="20" width="1" height="1" fill="#16703a"/>
  <rect x="2" y="20" width="1" height="1" fill="#18723c"/>
  <rect x="3" y="20" width="1" height="1" fill="#19743d"/>
  <rect x="4" y="20" width="1" height="1" fill="#1b763f"/>
  <rect x="5" y="20" width="1" height="1" fill="#1d7840"/>
  <rect x="6" y="20" width="2" height="1" fill="#ffffff"/>
  <rect x="8" y="20" width="1" height="1" fill="#10121a"/>
  <rect x="9" y="20" width="1" height="1" fill="#248046"/>
  <rect x="10" y="20" width="16" height="1" fill="#ffffff"/>
  <rect x="26" y="20" width="1" height="1" fill="#10121a"/>
  <rect x="27" y="20" width="1" height="1" fill="#40a462"/>
  <rect x="28" y="20" width="1" height="1" fill="#42a664"/>
  <rect x="29" y="20" width="1" height="1" fill="#43a865"/>
  <rect x="30" y="20" width="1" height="1" fill="#45ab67"/>
  <rect x="1" y="21" width="1" height="1" fill="#146e39"/>
  <rect x="2" y="21" width="1" height="1" fill="#16703a"/>
  <rect x="3" y="21" width="1" height="1" fill="#18723c"/>
  <rect x="4" y="21" width="1" height="1" fill="#19743d"/>
  <rect x="5" y="21" width="1" height="1" fill="#1b763f"/>
  <rect x="6" y="21" width="2" height="1" fill="#ffffff"/>
  <rect x="8" y="21" width="1" height="1" fill="#10121a"/>
  <rect x="9" y="21" width="17" height="1" fill="#ffffff"/>
  <rect x="26" y="21" width="1" height="1" fill="#10121a"/>
  <rect x="27" y="21" width="1" height="1" fill="#3ea261"/>
  <rect x="28" y="21" width="1" height="1" fill="#40a462"/>
  <rect x="29" y="21" width="1" height="1" fill="#42a664"/>
  <rect x="30" y="21" width="1" height="1" fill="#43a865"/>
  <rect x="1" y="22" width="1" height="1" fill="#126c38"/>
  <rect x="2" y="22" width="1" height="1" fill="#146e39"/>
  <rect x="3" y="22" width="1" height="1" fill="#16703a"/>
  <rect x="4" y="22" width="1" height="1" fill="#18723c"/>
  <rect x="5" y="22" width="1" height="1" fill="#19743d"/>
  <rect x="6" y="22" width="20" height="1" fill="#ffffff"/>
  <rect x="26" y="22" width="1" height="1" fill="#10121a"/>
  <rect x="27" y="22" width="1" height="1" fill="#3da05f"/>
  <rect x="28" y="22" width="1" height="1" fill="#3ea261"/>
  <rect x="29" y="22" width="1" height="1" fill="#40a462"/>
  <rect x="30" y="22" width="1" height="1" fill="#42a664"/>
  <rect x="1" y="23" width="1" height="1" fill="#106a36"/>
  <rect x="2" y="23" width="1" height="1" fill="#126c38"/>
  <rect x="3" y="23" width="1" height="1" fill="#146e39"/>
  <rect x="4" y="23" width="1" height="1" fill="#16703a"/>
  <rect x="5" y="23" width="1" height="1" fill="#18723c"/>
  <rect x="6" y="23" width="1" height="1" fill="#19743d"/>
  <rect x="7" y="23" width="19" height="1" fill="#ffffff"/>
  <rect x="26" y="23" width="1" height="1" fill="#10121a"/>
  <rect x="27" y="23" width="1" height="1" fill="#3b9e5e"/>
  <rect x="28" y="23" width="1" height="1" fill="#3da05f"/>
  <rect x="29" y="23" width="1" height="1" fill="#3ea261"/>
  <rect x="30" y="23" width="1" height="1" fill="#40a462"/>
  <rect x="1" y="24" width="1" height="1" fill="#0e6835"/>
  <rect x="2" y="24" width="1" height="1" fill="#106a36"/>
  <rect x="3" y="24" width="1" height="1" fill="#126c38"/>
  <rect x="4" y="24" width="1" height="1" fill="#146e39"/>
  <rect x="5" y="24" width="1" height="1" fill="#16703a"/>
  <rect x="6" y="24" width="1" height="1" fill="#18723c"/>
  <rect x="7" y="24" width="1" height="1" fill="#19743d"/>
  <rect x="8" y="24" width="16" height="1" fill="#ffffff"/>
  <rect x="24" y="24" width="3" height="1" fill="#10121a"/>
  <rect x="27" y="24" width="1" height="1" fill="#3a9c5c"/>
  <rect x="28" y="24" width="1" height="1" fill="#3b9e5e"/>
  <rect x="29" y="24" width="1" height="1" fill="#3da05f"/>
  <rect x="30" y="24" width="1" height="1" fill="#3ea261"/>
  <rect x="1" y="25" width="1" height="1" fill="#0b6633"/>
  <rect x="2" y="25" width="1" height="1" fill="#0e6835"/>
  <rect x="3" y="25" width="1" height="1" fill="#106a36"/>
  <rect x="4" y="25" width="1" height="1" fill="#126c38"/>
  <rect x="5" y="25" width="1" height="1" fill="#146e39"/>
  <rect x="6" y="25" width="1" height="1" fill="#16703a"/>
  <rect x="7" y="25" width="1" height="1" fill="#18723c"/>
  <rect x="8" y="25" width="1" height="1" fill="#19743d"/>
  <rect x="9" y="25" width="16" height="1" fill="#10121a"/>
  <rect x="25" y="25" width="1" height="1" fill="#359657"/>
  <rect x="26" y="25" width="1" height="1" fill="#379859"/>
  <rect x="27" y="25" width="1" height="1" fill="#389a5a"/>
  <rect x="28" y="25" width="1" height="1" fill="#3a9c5c"/>
  <rect x="29" y="25" width="1" height="1" fill="#3b9e5e"/>
  <rect x="30" y="25" width="1" height="1" fill="#3da05f"/>
  <rect x="2" y="26" width="1" height="1" fill="#0b6633"/>
  <rect x="3" y="26" width="1" height="1" fill="#0e6835"/>
  <rect x="4" y="26" width="1" height="1" fill="#106a36"/>
  <rect x="5" y="26" width="1" height="1" fill="#126c38"/>
  <rect x="6" y="26" width="1" height="1" fill="#146e39"/>
  <rect x="7" y="26" width="1" height="1" fill="#16703a"/>
  <rect x="8" y="26" width="1" height="1" fill="#18723c"/>
  <rect x="9" y="26" width="1" height="1" fill="#19743d"/>
  <rect x="10" y="26" width="1" height="1" fill="#1b763f"/>
  <rect x="11" y="26" width="1" height="1" fill="#1d7840"/>
  <rect x="12" y="26" width="1" height="1" fill="#1f7a42"/>
  <rect x="13" y="26" width="1" height="1" fill="#207c43"/>
  <rect x="14" y="26" width="1" height="1" fill="#227e45"/>
  <rect x="15" y="26" width="1" height="1" fill="#248046"/>
  <rect x="16" y="26" width="1" height="1" fill="#258248"/>
  <rect x="17" y="26" width="1" height="1" fill="#278449"/>
  <rect x="18" y="26" width="1" height="1" fill="#29864b"/>
  <rect x="19" y="26" width="1" height="1" fill="#2a884c"/>
  <rect x="20" y="26" width="1" height="1" fill="#2c8a4e"/>
  <rect x="21" y="26" width="1" height="1" fill="#2d8c50"/>
  <rect x="22" y="26" width="1" height="1" fill="#2f8e51"/>
  <rect x="23" y="26" width="1" height="1" fill="#309053"/>
  <rect x="24" y="26" width="1" height="1" fill="#329254"/>
  <rect x="25" y="26" width="1" height="1" fill="#349456"/>
  <rect x="26" y="26" width="1" height="1" fill="#359657"/>
  <rect x="27" y="26" width="1" height="1" fill="#379859"/>
  <rect x="28" y="26" width="1" height="1" fill="#389a5a"/>
  <rect x="29" y="26" width="1" height="1" fill="#3a9c5c"/>
  <rect x="2" y="27" width="1" height="1" fill="#096532"/>
  <rect x="3" y="27" width="1" height="1" fill="#0b6633"/>
  <rect x="4" y="27" width="1" height="1" fill="#0e6835"/>
  <rect x="5" y="27" width="1" height="1" fill="#106a36"/>
  <rect x="6" y="27" width="1" height="1" fill="#126c38"/>
  <rect x="7" y="27" width="1" height="1" fill="#146e39"/>
  <rect x="8" y="27" width="1" height="1" fill="#16703a"/>
  <rect x="9" y="27" width="1" height="1" fill="#18723c"/>
  <rect x="10" y="27" width="1" height="1" fill="#19743d"/>
  <rect x="11" y="27" width="1" height="1" fill="#1b763f"/>
  <rect x="12" y="27" width="1" height="1" fill="#1d7840"/>
  <rect x="13" y="27" width="1" height="1" fill="#1f7a42"/>
  <rect x="14" y="27" width="1" height="1" fill="#207c43"/>
  <rect x="15" y="27" width="1" height="1" fill="#227e45"/>
  <rect x="16" y="27" width="1" height="1" fill="#248046"/>
  <rect x="17" y="27" width="1" height="1" fill="#258248"/>
  <rect x="18" y="27" width="1" height="1" fill="#278449"/>
  <rect x="19" y="27" width="1" height="1" fill="#29864b"/>
  <rect x="20" y="27" width="1" height="1" fill="#2a884c"/>
  <rect x="21" y="27" width="1" height="1" fill="#2c8a4e"/>
  <rect x="22" y="27" width="1" height="1" fill="#2d8c50"/>
  <rect x="23" y="27" width="1" height="1" fill="#2f8e51"/>
  <rect x="24" y="27" width="1" height="1" fill="#309053"/>
  <rect x="25" y="27" width="1" height="1" fill="#329254"/>
  <rect x="26" y="27" width="1" height="1" fill="#349456"/>
  <rect x="27" y="27" width="1" height="1" fill="#359657"/>
  <rect x="28" y="27" width="1" height="1" fill="#379859"/>
  <rect x="29" y="27" width="1" height="1" fill="#389a5a"/>
  <rect x="3" y="28" width="1" height="1" fill="#096532"/>
  <rect x="4" y="28" width="1" height="1" fill="#0b6633"/>
  <rect x="5" y="28" width="1" height="1" fill="#0e6835"/>
  <rect x="6" y="28" width="1" height="1" fill="#106a36"/>
  <rect x="7" y="28" width="1" height="1" fill="#126c38"/>
  <rect x="8" y="28" width="1" height="1" fill="#146e39"/>
  <rect x="9" y="28" width="1" height="1" fill="#16703a"/>
  <rect x="10" y="28" width="1" height="1" fill="#18723c"/>
  <rect x="11" y="28" width="1" height="1" fill="#19743d"/>
  <rect x="12" y="28" width="1" height="1" fill="#1b763f"/>
  <rect x="13" y="28" width="1" height="1" fill="#1d7840"/>
  <rect x="14" y="28" width="1" height="1" fill="#1f7a42"/>
  <rect x="15" y="28" width="1" height="1" fill="#207c43"/>
  <rect x="16" y="28" width="1" height="1" fill="#227e45"/>
  <rect x="17" y="28" width="1" height="1" fill="#248046"/>
  <rect x="18" y="28" width="1" height="1" fill="#258248"/>
  <rect x="19" y="28" width="1" height="1" fill="#278449"/>
  <rect x="20" y="28" width="1" height="1" fill="#29864b"/>
  <rect x="21" y="28" width="1" height="1" fill="#2a884c"/>
  <rect x="22" y="28" width="1" height="1" fill="#2c8a4e"/>
  <rect x="23" y="28" width="1" height="1" fill="#2d8c50"/>
  <rect x="24" y="28" width="1" height="1" fill="#2f8e51"/>
  <rect x="25" y="28" width="1" height="1" fill="#309053"/>
  <rect x="26" y="28" width="1" height="1" fill="#329254"/>
  <rect x="27" y="28" width="1" height="1" fill="#349456"/>
  <rect x="28" y="28" width="1" height="1" fill="#359657"/>
  <rect x="4" y="29" width="1" height="1" fill="#096532"/>
  <rect x="5" y="29" width="1" height="1" fill="#0b6633"/>
  <rect x="6" y="29" width="1" height="1" fill="#0e6835"/>
  <rect x="7" y="29" width="1" height="1" fill="#106a36"/>
  <rect x="8" y="29" width="1" height="1" fill="#126c38"/>
  <rect x="9" y="29" width="1" height="1" fill="#146e39"/>
  <rect x="10" y="29" width="1" height="1" fill="#16703a"/>
  <rect x="11" y="29" width="1" height="1" fill="#18723c"/>
  <rect x="12" y="29" width="1" height="1" fill="#19743d"/>
  <rect x="13" y="29" width="1" height="1" fill="#1b763f"/>
  <rect x="14" y="29" width="1" height="1" fill="#1d7840"/>
  <rect x="15" y="29" width="1" height="1" fill="#1f7a42"/>
  <rect x="16" y="29" width="1" height="1" fill="#207c43"/>
  <rect x="17" y="29" width="1" height="1" fill="#227e45"/>
  <rect x="18" y="29" width="1" height="1" fill="#248046"/>
  <rect x="19" y="29" width="1" height="1" fill="#258248"/>
  <rect x="20" y="29" width="1" height="1" fill="#278449"/>
  <rect x="21" y="29" width="1" height="1" fill="#29864b"/>
  <rect x="22" y="29" width="1" height="1" fill="#2a884c"/>
  <rect x="23" y="29" width="1" height="1" fill="#2c8a4e"/>
  <rect x="24" y="29" width="1" height="1" fill="#2d8c50"/>
  <rect x="25" y="29" width="1" height="1" fill="#2f8e51"/>
  <rect x="26" y="29" width="1" height="1" fill="#309053"/>
  <rect x="27" y="29" width="1" height="1" fill="#329254"/>
  <rect x="6" y="30" width="1" height="1" fill="#0b6633"/>
  <rect x="7" y="30" width="1" height="1" fill="#0e6835"/>
  <rect x="8" y="30" width="1" height="1" fill="#106a36"/>
  <rect x="9" y="30" width="1" height="1" fill="#126c38"/>
  <rect x="10" y="30" width="1" height="1" fill="#146e39"/>
  <rect x="11" y="30" width="1" height="1" fill="#16703a"/>
  <rect x="12" y="30" width="1" height="1" fill="#18723c"/>
  <rect x="13" y="30" width="1" height="1" fill="#19743d"/>
  <rect x="14" y="30" width="1" height="1" fill="#1b763f"/>
  <rect x="15" y="30" width="1" height="1" fill="#1d7840"/>
  <rect x="16" y="30" width="1" height="1" fill="#1f7a42"/>
  <rect x="17" y="30" width="1" height="1" fill="#207c43"/>
  <rect x="18" y="30" width="1" height="1" fill="#227e45"/>
  <rect x="19" y="30" width="1" height="1" fill="#248046"/>
  <rect x="20" y="30" width="1" height="1" fill="#258248"/>
  <rect x="21" y="30" width="1" height="1" fill="#278449"/>
  <rect x="22" y="30" width="1" height="1" fill="#29864b"/>
  <rect x="23" y="30" width="1" height="1" fill="#2a884c"/>
  <rect x="24" y="30" width="1" height="1" fill="#2c8a4e"/>
  <rect x="25" y="30" width="1" height="1" fill="#2d8c50"/>
</svg>
