<svg xmlns="http://www.w3.org/2000/svg" viewBox="0 0 32 32" width="32" height="32" shape-rendering="crispEdges">
  <rect x="6" y="1" width="20" height="1" fill="#ffffff"/>
  <rect x="4" y="2" width="2" height="1" fill="#ffffff"/>
  <rect x="6" y="2" width="1" height="1" fill="#c15ea3"/>
  <rect x="7" y="2" width="1" height="1" fill="#c360a5"/>
  <rect x="8" y="2" width="1" height="1" fill="#c562a7"/>
  <rect x="9" y="2" width="1" height="1" fill="#c764a9"/>
  <rect x="10" y="2" width="1" height="1" fill="#c966ab"/>
  <rect x="11" y="2" width="1" height="1" fill="#cb68ad"/>
  <rect x="12" y="2" width="1" height="1" fill="#cd6aaf"/>
  <rect x="13" y="2" width="1" height="1" fill="#cf6bb1"/>
  <rect x="14" y="2" width="1" height="1" fill="#d16db3"/>
  <rect x="15" y="2" width="1" height="1" fill="#d36fb5"/>
  <rect x="16" y="2" width="1" height="1" fill="#d571b7"/>
  <rect x="17" y="2" width="1" height="1" fill="#d773b9"/>
  <rect x="18" y="2" width="1" height="1" fill="#da75bb"/>
  <rect x="19" y="2" width="1" height="1" fill="#dc77bd"/>
  <rect x="20" y="2" width="1" height="1" fill="#de79bf"/>
  <rect x="21" y="2" width="1" height="1" fill="#e07bc1"/>
  <rect x="22" y="2" width="1" height="1" fill="#e27dc3"/>
  <rect x="23" y="2" width="1" height="1" fill="#e47fc5"/>
  <rect x="24" y="2" width="1" height="1" fill="#e680c7"/>
  <rect x="25" y="2" width="1" height="1" fill="#e882c9"/>
  <rect x="26" y="2" width="2" height="1" fill="#ffffff"/>
  <rect x="3" y="3" width="1" height="1" fill="#ffffff"/>
  <rect x="4" y="3" width="1" height="1" fill="#ba599e"/>
  <rect x="5" y="3" width="1" height="1" fill="#bc5aa0"/>
  <rect x="6" y="3" width="1" height="1" fill="#be5ca2"/>
  <rect x="7" y="3" width="1" height="1" fill="#c15ea3"/>
  <rect x="8" y="3" width="1" height="1" fill="#c360a5"/>
  <rect x="9" y="3" width="1" height="1" fill="#c562a7"/>
  <rect x="10" y="3" width="1" height="1" fill="#c764a9"/>
  <rect x="11" y="3" width="1" height="1" fill="#c966ab"/>
  <rect x="12" y="3" width="1" height="1" fill="#cb68ad"/>
  <rect x="13" y="3" width="1" height="1" fill="#cd6aaf"/>
  <rect x="14" y="3" width="1" height="1" fill="#cf6bb1"/>
  <rect x="15" y="3" width="1" height="1" fill="#d16db3"/>
  <rect x="16" y="3" width="1" height="1" fill="#d36fb5"/>
  <rect x="17" y="3" width="1" height="1" fill="#d571b7"/>
  <rect x="18" y="3" width="1" height="1" fill="#d773b9"/>
  <rect x="19" y="3" width="1" height="1" fill="#da75bb"/>
  <rect x="20" y="3" width="1" height="1" fill="#dc77bd"/>
  <rect x="21" y="3" width="1" height="1" fill="#de79bf"/>
  <rect x="22" y="3" width="1" height="1" fill="#e07bc1"/>
  <rect x="23" y="3" width="1" height="1" fill="#e27dc3"/>
  <rect x="24" y="3" width="1" height="1" fill="#e47fc5"/>
  <rect x="25" y="3" width="1" height="1" fill="#e680c7"/>
  <rect x="26" y="3" width="1" height="1" fill="#e882c9"/>
  <rect x="27" y="3" width="1" height="1" fill="#ea84cb"/>
  <rect x="28" y="3" width="1" height="1" fill="#ffffff"/>
  <rect x="2" y="4" width="1" height="1" fill="#ffffff"/>
  <rect x="3" y="4" width="1" height="1" fill="#b6559a"/>
  <rect x="4" y="4" width="1" height="1" fill="#b8579c"/>
  <rect x="5" y="4" width="1" height="1" fill="#ba599e"/>
  <rect x="6" y="4" width="1" height="1" fill="#bc5aa0"/>
  <rect x="7" y="4" width="1" height="1" fill="#be5ca2"/>
  <rect x="8" y="4" width="1" height="1" fill="#c15ea3"/>
  <rect x="9" y="4" width="1" height="1" fill="#c360a5"/>
  <rect x="10" y="4" width="1" height="1" fill="#c562a7"/>
  <rect x="11" y="4" width="1" height="1" fill="#c764a9"/>
  <rect x="12" y="4" width="1" height="1" fill="#c966ab"/>
  <rect x="13" y="4" width="1" height="1" fill="#cb68ad"/>
  <rect x="14" y="4" width="1" height="1" fill="#cd6aaf"/>
  <rect x="15" y="4" width="1" height="1" fill="#cf6bb1"/>
  <rect x="16" y="4" width="1" height="1" fill="#d16db3"/>
  <rect x="17" y="4" width="1" height="1" fill="#d36fb5"/>
  <rect x="18" y="4" width="1" height="1" fill="#d571b7"/>
  <rect x="19" y="4" width="1" height="1" fill="#d773b9"/>
  <rect x="20" y="4" width="1" height="1" fill="#da75bb"/>
  <rect x="21" y="4" width="1" height="1" fill="#dc77bd"/>
  <rect x="22" y="4" width="1" height="1" fill="#de79bf"/>
  <rect x="23" y="4" width="1" height="1" fill="#e07bc1"/>
  <rect x="24" y="4" width="1" height="1" fill="#e27dc3"/>
  <rect x="25" y="4" width="1" height="1" fill="#e47fc5"/>
  <rect x="26" y="4" width="1" height="1" fill="#e680c7"/>
  <rect x="27" y="4" width="1" height="1" fill="#e882c9"/>
  <rect x="28" y="4" width="1" height="1" fill="#ea84cb"/>
  <rect x="29" y="4" width="1" height="1" fill="#ffffff"/>
  <rect x="2" y="5" width="1" height="1" fill="#b25196"/>
  <rect x="3" y="5" width="1" height="1" fill="#b45398"/>
  <rect x="4" y="5" width="1" height="1" fill="#b6559a"/>
  <rect x="5" y="5" width="1" height="1" fill="#b8579c"/>
  <rect x="6" y="5" width="1" height="1" fill="#ba599e"/>
  <rect x="7" y="5" width="1" height="1" fill="#bc5aa0"/>
  <rect x="8" y="5" width="1" height="1" fill="#be5ca2"/>
  <rect x="9" y="5" width="1" height="1" fill="#c15ea3"/>
  <rect x="10" y="5" width="1" height="1" fill="#c360a5"/>
  <rect x="11" y="5" width="1" height="1" fill="#c562a7"/>
  <rect x="12" y="5" width="1" height="1" fill="#c764a9"/>
  <rect x="13" y="5" width="1" height="1" fill="#c966ab"/>
  <rect x="14" y="5" width="1" height="1" fill="#cb68ad"/>
  <rect x="15" y="5" width="1" height="1" fill="#cd6aaf"/>
  <rect x="16" y="5" width="1" height="1" fill="#cf6bb1"/>
  <rect x="17" y="5" width="1" height="1" fill="#d16db3"/>
  <rect x="18" y="5" width="1" height="1" fill="#d36fb5"/>
  <rect x="19" y="5" width="1" height="1" fill="#d571b7"/>
  <rect x="20" y="5" width="1" height="1" fill="#d773b9"/>
  <rect x="21" y="5" width="1" height="1" fill="#da75bb"/>
  <rect x="22" y="5" width="1" height="1" fill="#dc77bd"/>
  <rect x="23" y="5" width="1" height="1" fill="#de79bf"/>
  <rect x="24" y="5" width="1" height="1" fill="#e07bc1"/>
  <rect x="25" y="5" width="1" height="1" fill="#e27dc3"/>
  <rect x="26" y="5" width="1" height="1" fill="#e47fc5"/>
  <rect x="27" y="5" width="1" height="1" fill="#e680c7"/>
  <rect x="28" y="5" width="1" height="1" fill="#e882c9"/>
  <rect x="29" y="5" width="1" height="1" fill="#ea84cb"/>
  <rect x="1" y="6" width="1" height="1" fill="#ffffff"/>
  <rect x="2" y="6" width="1" height="1" fill="#b04f94"/>
  <rect x="3" y="6" width="1" height="1" fill="#b25196"/>
  <rect x="4" y="6" width="1" height="1" fill="#b45398"/>
  <rect x="5" y="6" width="1" height="1" fill="#b6559a"/>
  <rect x="6" y="6" width="1" height="1" fill="#b8579c"/>
  <rect x="7" y="6" width="1" height="1" fill="#ba599e"/>
  <rect x="8" y="6" width="1" height="1" fill="#bc5aa0"/>
  <rect x="9" y="6" width="1" height="1" fill="#be5ca2"/>
  <rect x="10" y="6" width="1" height="1" fill="#c15ea3"/>
  <rect x="11" y="6" width="1" height="1" fill="#c360a5"/>
  <rect x="12" y="6" width="1" height="1" fill="#c562a7"/>
  <rect x="13" y="6" width="1" height="1" fill="#c764a9"/>
  <rect x="14" y="6" width="1" height="1" fill="#c966ab"/>
  <rect x="15" y="6" width="1" height="1" fill="#cb68ad"/>
  <rect x="16" y="6" width="1" height="1" fill="#cd6aaf"/>
  <rect x="17" y="6" width="1" height="1" fill="#cf6bb1"/>
  <rect x="18" y="6" width="1" height="1" fill="#d16db3"/>
  <rect x="19" y="6" width="1" height="1" fill="#d36fb5"/>
  <rect x="20" y="6" width="1" height="1" fill="#d571b7"/>
  <rect x="21" y="6" width="1" height="1" fill="#d773b9"/>
  <rect x="22" y="6" width="1" height="1" fill="#da75bb"/>
  <rect x="23" y="6" width="1" height="1" fill="#dc77bd"/>
  <rect x="24" y="6" width="1" height="1" fill="#de79bf"/>
  <rect x="25" y="6" width="1" height="1" fill="#e07bc1"/>
  <rect x="26" y="6" width="1" height="1" fill="#e27dc3"/>
  <rect x="27" y="6" width="1" height="1" fill="#e47fc5"/>
  <rect x="28" y="6" width="1" height="1" fill="#e680c7"/>
  <rect x="29" y="6" width="1" height="1" fill="#e882c9"/>
  <rect x="30" y="6" width="1" height="1" fill="#ffffff"/>
  <rect x="1" y="7" width="1" height="1" fill="#ac4b90"/>
  <rect x="2" y="7" width="1" height="1" fill="#ae4d92"/>
  <rect x="3" y="7" width="1" height="1" fill="#b04f94"/>
  <rect x="4" y="7" width="1" height="1" fill="#b25196"/>
  <rect x="5" y="7" width="1" height="1" fill="#b45398"/>
  <rect x="6" y="7" width="1" height="1" fill="#b6559a"/>
  <rect x="7" y="7" width="1" height="1" fill="#b8579c"/>
  <rect x="8" y="7" width="1" height="1" fill="#ba599e"/>
  <rect x="9" y="7" width="1" height="1" fill="#bc5aa0"/>
  <rect x="10" y="7" width="1" height="1" fill="#be5ca2"/>
  <rect x="11" y="7" width="1" height="1" fill="#c15ea3"/>
  <rect x="12" y="7" width="1" height="1" fill="#c360a5"/>
  <rect x="13" y="7" width="1" height="1" fill="#c562a7"/>
  <rect x="14" y="7" width="1" height="1" fill="#c764a9"/>
  <rect x="15" y="7" width="1" height="1" fill="#c966ab"/>
  <rect x="16" y="7" width="1" height="1" fill="#cb68ad"/>
  <rect x="17" y="7" width="1" height="1" fill="#cd6aaf"/>
  <rect x="18" y="7" width="1" height="1" fill="#cf6bb1"/>
  <rect x="19" y="7" width="1" height="1" fill="#d16db3"/>
  <rect x="20" y="7" width="1" height="1" fill="#d36fb5"/>
  <rect x="21" y="7" width="1" height="1" fill="#d571b7"/>
  <rect x="22" y="7" width="1" height="1" fill="#d773b9"/>
  <rect x="23" y="7" width="1" height="1" fill="#da75bb"/>
  <rect x="24" y="7" width="1" height="1" fill="#dc77bd"/>
  <rect x="25" y="7" width="1" height="1" fill="#de79bf"/>
  <rect x="26" y="7" width="1" height="1" fill="#e07bc1"/>
  <rect x="27" y="7" width="1" height="1" fill="#e27dc3"/>
  <rect x="28" y="7" width="1" height="1" fill="#e47fc5"/>
  <rect x="29" y="7" width="1" height="1" fill="#e680c7"/>
  <rect x="30" y="7" width="1" height="1" fill="#e882c9"/>
  <rect x="1" y="8" width="1" height="1" fill="#aa4a8e"/>
  <rect x="2" y="8" width="1" height="1" fill="#ac4b90"/>
  <rect x="3" y="8" width="1" height="1" fill="#ae4d92"/>
  <rect x="4" y="8" width="1" height="1" fill="#b04f94"/>
  <rect x="5" y="8" width="1" height="1" fill="#b25196"/>
  <rect x="6" y="8" width="1" height="1" fill="#b45398"/>
  <rect x="7" y="8" width="1" height="1" fill="#b6559a"/>
  <rect x="8" y="8" width="1" height="1" fill="#b8579c"/>
  <rect x="9" y="8" width="1" height="1" fill="#ba599e"/>
  <rect x="10" y="8" width="1" height="1" fill="#bc5aa0"/>
  <rect x="11" y="8" width="1" height="1" fill="#be5ca2"/>
  <rect x="12" y="8" width="1" height="1" fill="#c15ea3"/>
  <rect x="13" y="8" width="1" height="1" fill="#c360a5"/>
  <rect x="14" y="8" width="1" height="1" fill="#c562a7"/>
  <rect x="15" y="8" width="1" height="1" fill="#c764a9"/>
  <rect x="16" y="8" width="1" height="1" fill="#c966ab"/>
  <rect x="17" y="8" width="1" height="1" fill="#cb68ad"/>
  <rect x="18" y="8" width="1" height="1" fill="#cd6aaf"/>
  <rect x="19" y="8" width="1" height="1" fill="#cf6bb1"/>
  <rect x="20" y="8" width="1" height="1" fill="#d16db3"/>
  <rect x="21" y="8" width="1" height="1" fill="#d36fb5"/>
  <rect x="22" y="8" width="1" height="1" fill="#d571b7"/>
  <rect x="23" y="8" width="1" height="1" fill="#d773b9"/>
  <rect x="24" y="8" width="1" height="1" fill="#da75bb"/>
  <rect x="25" y="8" width="1" height="1" fill="#dc77bd"/>
  <rect x="26" y="8" width="1" height="1" fill="#de79bf"/>
  <rect x="27" y="8" width="1" height="1" fill="#e07bc1"/>
  <rect x="28" y="8" width="1" height="1" fill="#e27dc3"/>
  <rect x="29" y="8" width="1" height="1" fill="#e47fc5"/>
  <rect x="30" y="8" width="1" height="1" fill="#e680c7"/>
  <rect x="1" y="9" width="1" height="1" fill="#a8488d"/>
  <rect x="2" y="9" width="1" height="1" fill="#aa4a8e"/>
  <rect x="3" y="9" width="1" height="1" fill="#ac4b90"/>
  <rect x="4" y="9" width="1" height="1" fill="#ae4d92"/>
  <rect x="5" y="9" width="1" height="1" fill="#b04f94"/>
  <rect x="6" y="9" width="1" height="1" fill="#b25196"/>
  <rect x="7" y="9" width="1" height="1" fill="#b45398"/>
  <rect x="8" y="9" width="1" height="1" fill="#b6559a"/>
  <rect x="9" y="9" width="1" height="1" fill="#b8579c"/>
  <rect x="10" y="9" width="1" height="1" fill="#ba599e"/>
  <rect x="11" y="9" width="1" height="1" fill="#bc5aa0"/>
  <rect x="12" y="9" width="1" height="1" fill="#be5ca2"/>
  <rect x="13" y="9" width="7" height="1" fill="#ffffff"/>
  <rect x="20" y="9" width="1" height="1" fill="#cf6bb1"/>
  <rect x="21" y="9" width="1" height="1" fill="#d16db3"/>
  <rect x="22" y="9" width="1" height="1" fill="#d36fb5"/>
  <rect x="23" y="9" width="1" height="1" fill="#d571b7"/>
  <rect x="24" y="9" width="1" height="1" fill="#d773b9"/>
  <rect x="25" y="9" width="1" height="1" fill="#da75bb"/>
  <rect x="26" y="9" width="1" height="1" fill="#dc77bd"/>
  <rect x="27" y="9" width="1" height="1" fill="#de79bf"/>
  <rect x="28" y="9" width="1" height="1" fill="#e07bc1"/>
  <rect x="29" y="9" width="1" height="1" fill="#e27dc3"/>
  <rect x="30" y="9" width="1" height="1" fill="#e47fc5"/>
  <rect x="1" y="10" width="1" height="1" fill="#a6468b"/>
  <rect x="2" y="10" width="1" height="1" fill="#a8488d"/>
  <rect x="3" y="10" width="1" height="1" fill="#aa4a8e"/>
  <rect x="4" y="10" width="1" height="1" fill="#ac4b90"/>
  <rect x="5" y="10" width="1" height="1" fill="#ae4d92"/>
  <rect x="6" y="10" width="1" height="1" fill="#b04f94"/>
  <rect x="7" y="10" width="1" height="1" fill="#b25196"/>
  <rect x="8" y="10" width="1" height="1" fill="#b45398"/>
  <rect x="9" y="10" width="1" height="1" fill="#b6559a"/>
  <rect x="10" y="10" width="13" height="1" fill="#ffffff"/>
  <rect x="23" y="10" width="1" height="1" fill="#d36fb5"/>
  <rect x="24" y="10" width="1" height="1" fill="#d571b7"/>
  <rect x="25" y="10" width="1" height="1" fill="#d773b9"/>
  <rect x="26" y="10" width="1" height="1" fill="#da75bb"/>
  <rect x="27" y="10" width="1" height="1" fill="#dc77bd"/>
  <rect x="28" y="10" width="1" height="1" fill="#de79bf"/>
  <rect x="29" y="10" width="1" height="1" fill="#e07bc1"/>
  <rect x="30" y="10" width="1" height="1" fill="#e27dc3"/>
  <rect x="1" y="11" width="1" height="1" fill="#a44489"/>
  <rect x="2" y="11" width="1" height="1" fill="#a6468b"/>
  <rect x="3" y="11" width="1" height="1" fill="#a8488d"/>
  <rect x="4" y="11" width="1" height="1" fill="#aa4a8e"/>
  <rect x="5" y="11" width="1" height="1" fill="#ac4b90"/>
  <rect x="6" y="11" width="1" height="1" fill="#ae4d92"/>
  <rect x="7" y="11" width="1" height="1" fill="#b04f94"/>
  <rect x="8" y="11" width="1" height="1" fill="#b25196"/>
  <rect x="9" y="11" width="15" height="1" fill="#ffffff"/>
  <rect x="24" y="11" width="1" height="1" fill="#d36fb5"/>
  <rect x="25" y="11" width="1" height="1" fill="#d571b7"/>
  <rect x="26" y="11" width="1" height="1" fill="#d773b9"/>
  <rect x="27" y="11" width="1" height="1" fill="#da75bb"/>
  <rect x="28" y="11" width="1" height="1" fill="#dc77bd"/>
  <rect x="29" y="11" width="1" height="1" fill="#de79bf"/>
  <rect x="30" y="11" width="1" height="1" fill="#e07bc1"/>
  <rect x="1" y="12" width="1" height="1" fill="#a24287"/>
  <rect x="2" y="12" width="1" height="1" fill="#a44489"/>
  <rect x="3" y="12" width="1" height="1" fill="#a6468b"/>
  <rect x="4" y="12" width="1" height="1" fill="#a8488d"/>
  <rect x="5" y="12" width="1" height="1" fill="#aa4a8e"/>
  <rect x="6" y="12" width="1" height="1" fill="#ac4b90"/>
  <rect x="7" y="12" width="6" height="1" fill="#ffffff"/>
  <rect x="13" y="12" width="7" height="1" fill="#10121a"/>
  <rect x="20" y="12" width="6" height="1" fill="#ffffff"/>
  <rect x="26" y="12" width="1" height="1" fill="#d571b7"/>
  <rect x="27" y="12" width="1" height="1" fill="#d773b9"/>
  <rect x="28" y="12" width="1" height="1" fill="#da75bb"/>
  <rect x="29" y="12" width="1" height="1" fill="#dc77bd"/>
  <rect x="30" y="12" width="1" height="1" fill="#de79bf"/>
  <rect x="1" y="13" width="1" height="1" fill="#a04085"/>
  <rect x="2" y="13" width="1" height="1" fill="#a24287"/>
  <rect x="3" y="13" width="1" height="1" fill="#a44489"/>
  <rect x="4" y="13" width="1" height="1" fill="#a6468b"/>
  <rect x="5" y="13" width="1" height="1" fill="#a8488d"/>
  <rect x="6" y="13" width="4" height="1" fill="#ffffff"/>
  <rect x="10" y="13" width="3" height="1" fill="#10121a"/>
  <rect x="13" y="13" width="7" height="1" fill="#ffffff"/>
  <rect x="20" y="13" width="1" height="1" fill="#c764a9"/>
  <rect x="21" y="13" width="2" height="1" fill="#10121a"/>
  <rect x="23" y="13" width="4" height="1" fill="#ffffff"/>
  <rect x="27" y="13" width="1" height="1" fill="#d571b7"/>
  <rect x="28" y="13" width="1" height="1" fill="#d773b9"/>
  <rect x="29" y="13" width="1" height="1" fill="#da75bb"/>
  <rect x="30" y="13" width="1" height="1" fill="#dc77bd"/>
  <rect x="1" y="14" width="1" height="1" fill="#9e3e83"/>
  <rect x="2" y="14" width="1" height="1" fill="#a04085"/>
  <rect x="3" y="14" width="1" height="1" fill="#a24287"/>
  <rect x="4" y="14" width="1" height="1" fill="#a44489"/>
  <rect x="5" y="14" width="4" height="1" fill="#ffffff"/>
  <rect x="9" y="14" width="2" height="1" fill="#10121a"/>
  <rect x="11" y="14" width="11" height="1" fill="#ffffff"/>
  <rect x="22" y="14" width="1" height="1" fill="#c966ab"/>
  <rect x="23" y="14" width="1" height="1" fill="#cb68ad"/>
  <rect x="24" y="14" width="4" height="1" fill="#ffffff"/>
  <rect x="28" y="14" width="1" height="1" fill="#d571b7"/>
  <rect x="29" y="14" width="1" height="1" fill="#d773b9"/>
  <rect x="30" y="14" width="1" height="1" fill="#da75bb"/>
  <rect x="1" y="15" width="1" height="1" fill="#9c3c81"/>
  <rect x="2" y="15" width="1" height="1" fill="#9e3e83"/>
  <rect x="3" y="15" width="1" height="1" fill="#a04085"/>
  <rect x="4" y="15" width="4" height="1" fill="#ffffff"/>
  <rect x="8" y="15" width="2" height="1" fill="#10121a"/>
  <rect x="10" y="15" width="13" height="1" fill="#ffffff"/>
  <rect x="23" y="15" width="1" height="1" fill="#c966ab"/>
  <rect x="24" y="15" width="1" height="1" fill="#cb68ad"/>
  <rect x="25" y="15" width="1" height="1" fill="#10121a"/>
  <rect x="26" y="15" width="3" height="1" fill="#ffffff"/>
  <rect x="29" y="15" width="1" height="1" fill="#d571b7"/>
  <rect x="30" y="15" width="1" height="1" fill="#d773b9"/>
  <rect x="1" y="16" width="1" height="1" fill="#9a3b80"/>
  <rect x="2" y="16" width="1" height="1" fill="#9c3c81"/>
  <rect x="3" y="16" width="1" height="1" fill="#9e3e83"/>
  <rect x="4" y="16" width="3" height="1" fill="#ffffff"/>
  <rect x="7" y="16" width="2" height="1" fill="#10121a"/>
  <rect x="9" y="16" width="4" height="1" fill="#ffffff"/>
  <rect x="13" y="16" width="7" height="1" fill="#10121a"/>
  <rect x="20" y="16" width="4" height="1" fill="#ffffff"/>
  <rect x="24" y="16" width="1" height="1" fill="#c966ab"/>
  <rect x="25" y="16" width="1" height="1" fill="#cb68ad"/>
  <rect x="26" y="16" width="4" height="1" fill="#ffffff"/>
  <rect x="30" y="16" width="1" height="1" fill="#d571b7"/>
  <rect x="1" y="17" width="1" height="1" fill="#98397e"/>
  <rect x="2" y="17" width="1" height="1" fill="#9a3b80"/>
  <rect x="3" y="17" width="3" height="1" fill="#ffffff"/>
  <rect x="6" y="17" width="2" height="1" fill="#10121a"/>
  <rect x="8" y="17" width="3" height="1" fill="#ffffff"/>
  <rect x="11" y="17" width="3" height="1" fill="#10121a"/>
  <rect x="14" y="17" width="5" height="1" fill="#ffffff"/>
  <rect x="19" y="17" width="1" height="1" fill="#bc5aa0"/>
  <rect x="20" y="17" width="1" height="1" fill="#be5ca2"/>
  <rect x="21" y="17" width="1" height="1" fill="#10121a"/>
  <rect x="22" y="17" width="3" height="1" fill="#ffffff"/>
  <rect x="25" y="17" width="1" height="1" fill="#c966ab"/>
  <rect x="26" y="17" width="1" height="1" fill="#cb68ad"/>
  <rect x="27" y="17" width="3" height="1" fill="#ffffff"/>
  <rect x="30" y="17" width="1" height="1" fill="#10121a"/>
  <rect x="1" y="18" width="1" height="1" fill="#96377c"/>
  <rect x="2" y="18" width="1" height="1" fill="#98397e"/>
  <rect x="3" y="18" width="2" height="1" fill="#ffffff"/>
  <rect x="5" y="18" width="2" height="1" fill="#10121a"/>
  <rect x="7" y="18" width="3" height="1" fill="#ffffff"/>
  <rect x="10" y="18" width="2" height="1" fill="#10121a"/>
  <rect x="12" y="18" width="9" height="1" fill="#ffffff"/>
  <rect x="21" y="18" width="1" height="1" fill="#be5ca2"/>
  <rect x="22" y="18" width="1" height="1" fill="#c15ea3"/>
  <rect x="23" y="18" width="3" height="1" fill="#ffffff"/>
  <rect x="26" y="18" width="1" height="1" fill="#c966ab"/>
  <rect x="27" y="18" width="1" height="1" fill="#cb68ad"/>
  <rect x="28" y="18" width="3" height="1" fill="#ffffff"/>
  <rect x="1" y="19" width="1" height="1" fill="#94357a"/>
  <rect x="2" y="19" width="1" height="1" fill="#96377c"/>
  <rect x="3" y="19" width="2" height="1" fill="#ffffff"/>
  <rect x="5" y="19" width="1" height="1" fill="#10121a"/>
  <rect x="6" y="19" width="1" height="1" fill="#9e3e83"/>
  <rect x="7" y="19" width="3" height="1" fill="#ffffff"/>
  <rect x="10" y="19" width="1" height="1" fill="#10121a"/>
  <rect x="11" y="19" width="1" height="1" fill="#a8488d"/>
  <rect x="12" y="19" width="10" height="1" fill="#ffffff"/>
  <rect x="22" y="19" width="1" height="1" fill="#be5ca2"/>
  <rect x="23" y="19" width="1" height="1" fill="#c15ea3"/>
  <rect x="24" y="19" width="3" height="1" fill="#ffffff"/>
  <rect x="27" y="19" width="1" height="1" fill="#c966ab"/>
  <rect x="28" y="19" width="1" height="1" fill="#cb68ad"/>
  <rect x="29" y="19" width="2" height="1" fill="#ffffff"/>
  <rect x="31" y="19" width="1" height="1" fill="#10121a"/>
  <rect x="1" y="20" width="1" height="1" fill="#923378"/>
  <rect x="2" y="20" width="1" height="1" fill="#94357a"/>
  <rect x="3" y="20" width="1" height="1" fill="#ffffff"/>
  <rect x="4" y="20" width="2" height="1" fill="#10121a"/>
  <rect x="6" y="20" width="1" height="1" fill="#9c3c81"/>
  <rect x="7" y="20" width="2" height="1" fill="#ffffff"/>
  <rect x="9" y="20" width="2" height="1" fill="#10121a"/>
  <rect x="11" y="20" width="7" height="1" fill="#ffffff"/>
  <rect x="18" y="20" width="1" height="1" fill="#10121a"/>
  <rect x="19" y="20" width="3" height="1" fill="#ffffff"/>
  <rect x="22" y="20" width="1" height="1" fill="#10121a"/>
  <rect x="23" y="20" width="1" height="1" fill="#be5ca2"/>
  <rect x="24" y="20" width="3" height="1" fill="#ffffff"/>
  <rect x="27" y="20" width="1" height="1" fill="#10121a"/>
  <rect x="28" y="20" width="1" height="1" fill="#c966ab"/>
  <rect x="29" y="20" width="1" height="1" fill="#ffffff"/>
  <rect x="30" y="20" width="2" height="1" fill="#10121a"/>
  <rect x="1" y="21" width="1" height="1" fill="#903176"/>
  <rect x="2" y="21" width="1" height="1" fill="#923378"/>
  <rect x="3" y="21" width="1" height="1" fill="#94357a"/>
  <rect x="4" y="21" width="1" height="1" fill="#10121a"/>
  <rect x="5" y="21" width="1" height="1" fill="#98397e"/>
  <rect x="6" y="21" width="1" height="1" fill="#9a3b80"/>
  <rect x="7" y="21" width="2" height="1" fill="#ffffff"/>
  <rect x="9" y="21" width="1" height="1" fill="#10121a"/>
  <rect x="10" y="21" width="9" height="1" fill="#ffffff"/>
  <rect x="19" y="21" width="1" height="1" fill="#b45398"/>
  <rect x="20" y="21" width="3" height="1" fill="#ffffff"/>
  <rect x="23" y="21" width="1" height="1" fill="#bc5aa0"/>
  <rect x="24" y="21" width="1" height="1" fill="#be5ca2"/>
  <rect x="25" y="21" width="2" height="1" fill="#ffffff"/>
  <rect x="27" y="21" width="1" height="1" fill="#10121a"/>
  <rect x="28" y="21" width="1" height="1" fill="#c764a9"/>
  <rect x="29" y="21" width="1" height="1" fill="#c966ab"/>
  <rect x="30" y="21" width="1" height="1" fill="#10121a"/>
  <rect x="1" y="22" width="1" height="1" fill="#8e2f74"/>
  <rect x="2" y="22" width="1" height="1" fill="#903176"/>
  <rect x="3" y="22" width="1" height="1" fill="#923378"/>
  <rect x="4" y="22" width="1" height="1" fill="#94357a"/>
  <rect x="5" y="22" width="1" height="1" fill="#96377c"/>
  <rect x="6" y="22" width="1" height="1" fill="#98397e"/>
  <rect x="7" y="22" width="1" height="1" fill="#ffffff"/>
  <rect x="8" y="22" width="2" height="1" fill="#10121a"/>
  <rect x="10" y="22" width="2" height="1" fill="#ffffff"/>
  <rect x="12" y="22" width="1" height="1" fill="#10121a"/>
  <rect x="13" y="22" width="6" height="1" fill="#ffffff"/>
  <rect x="19" y="22" width="1" height="1" fill="#10121a"/>
  <rect x="20" y="22" width="1" height="1" fill="#b45398"/>
  <rect x="21" y="22" width="3" height="1" fill="#ffffff"/>
  <rect x="24" y="22" width="1" height="1" fill="#bc5aa0"/>
  <rect x="25" y="22" width="1" height="1" fill="#ffffff"/>
  <rect x="26" y="22" width="2" height="1" fill="#10121a"/>
  <rect x="28" y="22" width="1" height="1" fill="#c562a7"/>
  <rect x="29" y="22" width="1" height="1" fill="#c764a9"/>
  <rect x="30" y="22" width="1" height="1" fill="#c966ab"/>
  <rect x="1" y="23" width="1" height="1" fill="#8c2d73"/>
  <rect x="2" y="23" width="1" height="1" fill="#8e2f74"/>
  <rect x="3" y="23" width="1" height="1" fill="#903176"/>
  <rect x="4" y="23" width="1" height="1" fill="#923378"/>
  <rect x="5" y="23" width="1" height="1" fill="#94357a"/>
  <rect x="6" y="23" width="1" height="1" fill="#96377c"/>
  <rect x="7" y="23" width="1" height="1" fill="#98397e"/>
  <rect x="8" y="23" width="1" height="1" fill="#10121a"/>
  <rect x="9" y="23" width="1" height="1" fill="#9c3c81"/>
  <rect x="10" y="23" width="1" height="1" fill="#ffffff"/>
  <rect x="11" y="23" width="2" height="1" fill="#10121a"/>
  <rect x="13" y="23" width="6" height="1" fill="#ffffff"/>
  <rect x="19" y="23" width="1" height="1" fill="#10121a"/>
  <rect x="20" y="23" width="1" height="1" fill="#b25196"/>
  <rect x="21" y="23" width="1" height="1" fill="#b45398"/>
  <rect x="22" y="23" width="1" height="1" fill="#ffffff"/>
  <rect x="23" y="23" width="2" height="1" fill="#10121a"/>
  <rect x="25" y="23" width="1" height="1" fill="#bc5aa0"/>
  <rect x="26" y="23" width="1" height="1" fill="#10121a"/>
  <rect x="27" y="23" width="1" height="1" fill="#c15ea3"/>
  <rect x="28" y="23" width="1" height="1" fill="#c360a5"/>
  <rect x="29" y="23" width="1" height="1" fill="#c562a7"/>
  <rect x="30" y="23" width="1" height="1" fill="#c764a9"/>
  <rect x="1" y="24" width="1" height="1" fill="#8a2b71"/>
  <rect x="2" y="24" width="1" height="1" fill="#8c2d73"/>
  <rect x="3" y="24" width="1" height="1" fill="#8e2f74"/>
  <rect x="4" y="24" width="1" height="1" fill="#903176"/>
  <rect x="5" y="24" width="1" height="1" fill="#923378"/>
  <rect x="6" y="24" width="1" height="1" fill="#94357a"/>
  <rect x="7" y="24" width="1" height="1" fill="#96377c"/>
  <rect x="8" y="24" width="1" height="1" fill="#98397e"/>
  <rect x="9" y="24" width="1" height="1" fill="#9a3b80"/>
  <rect x="10" y="24" width="1" height="1" fill="#9c3c81"/>
  <rect x="11" y="24" width="1" height="1" fill="#10121a"/>
  <rect x="12" y="24" width="1" height="1" fill="#a04085"/>
  <rect x="13" y="24" width="6" height="1" fill="#ffffff"/>
  <rect x="19" y="24" width="1" height="1" fill="#10121a"/>
  <rect x="20" y="24" width="1" height="1" fill="#b04f94"/>
  <rect x="21" y="24" width="1" height="1" fill="#b25196"/>
  <rect x="22" y="24" width="1" height="1" fill="#b45398"/>
  <rect x="23" y="24" width="1" height="1" fill="#10121a"/>
  <rect x="24" y="24" width="1" height="1" fill="#b8579c"/>
  <rect x="25" y="24" width="1" height="1" fill="#ba599e"/>
  <rect x="26" y="24" width="1" height="1" fill="#bc5aa0"/>
  <rect x="27" y="24" width="1" height="1" fill="#be5ca2"/>
  <rect x="28" y="24" width="1" height="1" fill="#c15ea3"/>
  <rect x="29" y="24" width="1" height="1" fill="#c360a5"/>
  <rect x="30" y="24" width="1" height="1" fill="#c562a7"/>
  <rect x="1" y="25" width="1" height="1" fill="#88296f"/>
  <rect x="2" y="25" width="1" height="1" fill="#8a2b71"/>
  <rect x="3" y="25" width="1" height="1" fill="#8c2d73"/>
  <rect x="4" y="25" width="1" height="1" fill="#8e2f74"/>
  <rect x="5" y="25" width="1" height="1" fill="#903176"/>
  <rect x="6" y="25" width="1" height="1" fill="#923378"/>
  <rect x="7" y="25" width="1" height="1" fill="#94357a"/>
  <rect x="8" y="25" width="1" height="1" fill="#96377c"/>
  <rect x="9" y="25" width="1" height="1" fill="#98397e"/>
  <rect x="10" y="25" width="1" height="1" fill="#9a3b80"/>
  <rect x="11" y="25" width="1" height="1" fill="#9c3c81"/>
  <rect x="12" y="25" width="1" height="1" fill="#9e3e83"/>
  <rect x="13" y="25" width="1" height="1" fill="#a04085"/>
  <rect x="14" y="25" width="4" height="1" fill="#ffffff"/>
  <rect x="18" y="25" width="2" height="1" fill="#10121a"/>
  <rect x="20" y="25" width="1" height="1" fill="#ae4d92"/>
  <rect x="21" y="25" width="1" height="1" fill="#b04f94"/>
  <rect x="22" y="25" width="1" height="1" fill="#b25196"/>
  <rect x="23" y="25" width="1" height="1" fill="#b45398"/>
  <rect x="24" y="25" width="1" height="1" fill="#b6559a"/>
  <rect x="25" y="25" width="1" height="1" fill="#b8579c"/>
  <rect x="26" y="25" width="1" height="1" fill="#ba599e"/>
  <rect x="27" y="25" width="1" height="1" fill="#bc5aa0"/>
  <rect x="28" y="25" width="1" height="1" fill="#be5ca2"/>
  <rect x="29" y="25" width="1" height="1" fill="#c15ea3"/>
  <rect x="30" y="25" width="1" height="1" fill="#c360a5"/>
  <rect x="2" y="26" width="1" height="1" fill="#88296f"/>
  <rect x="3" y="26" width="1" height="1" fill="#8a2b71"/>
  <rect x="4" y="26" width="1" height="1" fill="#8c2d73"/>
  <rect x="5" y="26" width="1" height="1" fill="#8e2f74"/>
  <rect x="6" y="26" width="1" height="1" fill="#903176"/>
  <rect x="7" y="26" width="1" height="1" fill="#923378"/>
  <rect x="8" y="26" width="1" height="1" fill="#94357a"/>
  <rect x="9" y="26" width="1" height="1" fill="#96377c"/>
  <rect x="10" y="26" width="1" height="1" fill="#98397e"/>
  <rect x="11" y="26" width="1" height="1" fill="#9a3b80"/>
  <rect x="12" y="26" width="1" height="1" fill="#9c3c81"/>
  <rect x="13" y="26" width="1" height="1" fill="#9e3e83"/>
  <rect x="14" y="26" width="1" height="1" fill="#a04085"/>
  <rect x="15" y="26" width="4" height="1" fill="#10121a"/>
  <rect x="19" y="26" width="1" height="1" fill="#aa4a8e"/>
  <rect x="20" y="26" width="1" height="1" fill="#ac4b90"/>
  <rect x="21" y="26" width="1" height="1" fill="#ae4d92"/>
  <rect x="22" y="26" width="1" height="1" fill="#b04f94"/>
  <rect x="23" y="26" width="1" height="1" fill="#b25196"/>
  <rect x="24" y="26" width="1" height="1" fill="#b45398"/>
  <rect x="25" y="26" width="1" height="1" fill="#b6559a"/>
  <rect x="26" y="26" width="1" height="1" fill="#b8579c"/>
  <rect x="27" y="26" width="1" height="1" fill="#ba599e"/>
  <rect x="28" y="26" width="1" height="1" fill="#bc5aa0"/>
  <rect x="29" y="26" width="1" height="1" fill="#be5ca2"/>
  <rect x="2" y="27" width="1" height="1" fill="#86276d"/>
  <rect x="3" y="27" width="1" height="1" fill="#88296f"/>
  <rect x="4" y="27" width="1" height="1" fill="#8a2b71"/>
  <rect x="5" y="27" width="1" height="1" fill="#8c2d73"/>
  <rect x="6" y="27" width="1" height="1" fill="#8e2f74"/>
  <rect x="7" y="27" width="1" height="1" fill="#903176"/>
  <rect x="8" y="27" width="1" height="1" fill="#923378"/>
  <rect x="9" y="27" width="1" height="1" fill="#94357a"/>
  <rect x="10" y="27" width="1" height="1" fill="#96377c"/>
  <rect x="11" y="27" width="1" height="1" fill="#98397e"/>
  <rect x="12" y="27" width="1" height="1" fill="#9a3b80"/>
  <rect x="13" y="27" width="1" height="1" fill="#9c3c81"/>
  <rect x="14" y="27" width="1" height="1" fill="#9e3e83"/>
  <rect x="15" y="27" width="1" height="1" fill="#a04085"/>
  <rect x="16" y="27" width="1" height="1" fill="#a24287"/>
  <rect x="17" y="27" width="1" height="1" fill="#a44489"/>
  <rect x="18" y="27" width="1" height="1" fill="#a6468b"/>
  <rect x="19" y="27" width="1" height="1" fill="#a8488d"/>
  <rect x="20" y="27" width="1" height="1" fill="#aa4a8e"/>
  <rect x="21" y="27" width="1" height="1" fill="#ac4b90"/>
  <rect x="22" y="27" width="1" height="1" fill="#ae4d92"/>
  <rect x="23" y="27" width="1" height="1" fill="#b04f94"/>
  <rect x="24" y="27" width="1" height="1" fill="#b25196"/>
  <rect x="25" y="27" width="1" height="1" fill="#b45398"/>
  <rect x="26" y="27" width="1" height="1" fill="#b6559a"/>
  <rect x="27" y="27" width="1" height="1" fill="#b8579c"/>
  <rect x="28" y="27" width="1" height="1" fill="#ba599e"/>
  <rect x="29" y="27" width="1" height="1" fill="#bc5aa0"/>
  <rect x="3" y="28" width="1" height="1" fill="#86276d"/>
  <rect x="4" y="28" width="1" height="1" fill="#88296f"/>
  <rect x="5" y="28" width="1" height="1" fill="#8a2b71"/>
  <rect x="6" y="28" width="1" height="1" fill="#8c2d73"/>
  <rect x="7" y="28" width="1" height="1" fill="#8e2f74"/>
  <rect x="8" y="28" width="1" height="1" fill="#903176"/>
  <rect x="9" y="28" width="1" height="1" fill="#923378"/>
  <rect x="10" y="28" width="1" height="1" fill="#94357a"/>
  <rect x="11" y="28" width="1" height="1" fill="#96377c"/>
  <rect x="12" y="28" width="1" height="1" fill="#98397e"/>
  <rect x="13" y="28" width="1" height="1" fill="#9a3b80"/>
  <rect x="14" y="28" width="1" height="1" fill="#9c3c81"/>
  <rect x="15" y="28" width="1" height="1" fill="#9e3e83"/>
  <rect x="16" y="28" width="1" height="1" fill="#a04085"/>
  <rect x="17" y="28" width="1" height="1" fill="#a24287"/>
  <rect x="18" y="28" width="1" height="1" fill="#a44489"/>
  <rect x="19" y="28" width="1" height="1" fill="#a6468b"/>
  <rect x="20" y="28" width="1" height="1" fill="#a8488d"/>
  <rect x="21" y="28" width="1" height="1" fill="#aa4a8e"/>
  <rect x="22" y="28" width="1" height="1" fill="#ac4b90"/>
  <rect x="23" y="28" width="1" height="1" fill="#ae4d92"/>
  <rect x="24" y="28" width="1" height="1" fill="#b04f94"/>
  <rect x="25" y="28" width="1" height="1" fill="#b25196"/>
  <rect x="26" y="28" width="1" height="1" fill="#b45398"/>
  <rect x="27" y="28" width="1" height="1" fill="#b6559a"/>
  <rect x="28" y="28" width="1" height="1" fill="#b8579c"/>
  <rect x="4" y="29" width="1" height="1" fill="#86276d"/>
  <rect x="5" y="29" width="1" height="1" fill="#88296f"/>
  <rect x="6" y="29" width="1" height="1" fill="#8a2b71"/>
  <rect x="7" y="29" width="1" height="1" fill="#8c2d73"/>
  <rect x="8" y="29" width="1" height="1" fill="#8e2f74"/>
  <rect x="9" y="29" width="1" height="1" fill="#903176"/>
  <rect x="10" y="29" width="1" height="1" fill="#923378"/>
  <rect x="11" y="29" width="1" height="1" fill="#94357a"/>
  <rect x="12" y="29" width="1" height="1" fill="#96377c"/>
  <rect x="13" y="29" width="1" height="1" fill="#98397e"/>
  <rect x="14" y="29" width="1" height="1" fill="#9a3b80"/>
  <rect x="15" y="29" width="1" height="1" fill="#9c3c81"/>
  <rect x="16" y="29" width="1" height="1" fill="#9e3e83"/>
  <rect x="17" y="29" width="1" height="1" fill="#a04085"/>
  <rect x="18" y="29" width="1" height="1" fill="#a24287"/>
  <rect x="19" y="29" width="1" height="1" fill="#a44489"/>
  <rect x="20" y="29" width="1" height="1" fill="#a6468b"/>
  <rect x="21" y="29" width="1" height="1" fill="#a8488d"/>
  <rect x="22" y="29" width="1" height="1" fill="#aa4a8e"/>
  <rect x="23" y="29" width="1" height="1" fill="#ac4b90"/>
  <rect x="24" y="29" width="1" height="1" fill="#ae4d92"/>
  <rect x="25" y="29" width="1" height="1" fill="#b04f94"/>
  <rect x="26" y="29" width="1" height="1" fill="#b25196"/>
  <rect x="27" y="29" width="1" height="1" fill="#b45398"/>
  <rect x="6" y="30" width="1" height="1" fill="#88296f"/>
  <rect x="7" y="30" width="1" height="1" fill="#8a2b71"/>
  <rect x="8" y="30" width="1" height="1" fill="#8c2d73"/>
  <rect x="9" y="30" width="1" height="1" fill="#8e2f74"/>
  <rect x="10" y="30" width="1" height="1" fill="#903176"/>
  <rect x="11" y="30" width="1" height="1" fill="#923378"/>
  <rect x="12" y="30" width="1" height="1" fill="#94357a"/>
  <rect x="13" y="30" width="1" height="1" fill="#96377c"/>
  <rect x="14" y="30" width="1" height="1" fill="#98397e"/>
  <rect x="15" y="30" width="1" height="1" fill="#9a3b80"/>
  <rect x="16" y="30" width="1" height="1" fill="#9c3c81"/>
  <rect x="17" y="30" width="1" height="1" fill="#9e3e83"/>
  <rect x="18" y="30" width="1" height="1" fill="#a04085"/>
  <rect x="19" y="30" width="1" height="1" fill="#a24287"/>
  <rect x="20" y="30" width="1" height="1" fill="#a44489"/>
  <rect x="21" y="30" width="1" height="1" fill="#a6468b"/>
  <rect x="22" y="30" width="1" height="1" fill="#a8488d"/>
  <rect x="23" y="30" width="1" height="1" fill="#aa4a8e"/>
  <rect x="24" y="30" width="1" height="1" fill="#ac4b90"/>
  <rect x="25" y="30" width="1" height="1" fill="#ae4d92"/>
</svg>
