<svg xmlns="http://www.w3.org/2000/svg" viewBox="0 0 32 32" width="32" height="32" shape-rendering="crispEdges">
  <style>.c-k{fill:#26344a}.c-s{fill:#5b6b83}.c-p{fill:#eef2f8}.c-d{fill:#c0c4ca}.c-a{fill:#f5a623}.c-b{fill:#af7300}.c-c{fill:#6fa8dc}.c-r{fill:#e05a5a}</style>
  <rect x="5" y="2" width="23" height="1" id="px-0" class="c-k"/>
  <rect x="4" y="3" width="1" height="1" id="px-1" class="c-k"/>
  <rect x="5" y="3" width="22" height="1" id="px-2" class="c-s"/>
  <rect x="27" y="3" width="2" height="1" id="px-3" class="c-k"/>
  <rect x="4" y="4" width="25" height="1" id="px-4" class="c-k"/>
  <rect x="5" y="5" width="23" height="1" id="px-5" class="c-k"/>
  <rect x="8" y="6" width="17" height="1" id="px-6" class="c-k"/>
  <rect x="9" y="7" width="15" height="1" id="px-7" class="c-k"/>
  <rect x="9" y="8" width="2" height="1" id="px-8" class="c-k"/>
  <rect x="11" y="8" width="11" height="1" id="px-9" class="c-p"/>
  <rect x="22" y="8" width="2" height="1" id="px-10" class="c-k"/>
  <rect x="10" y="9" width="2" height="1" id="px-11" class="c-k"/>
  <rect x="12" y="9" width="1" height="1" id="px-12" class="c-p"/>
  <rect x="13" y="9" width="5" height="1" id="px-13" fill="#ffffff"/>
  <rect x="18" y="9" width="3" height="1" id="px-14" class="c-p"/>
  <rect x="21" y="9" width="2" height="1" id="px-15" class="c-k"/>
  <rect x="10" y="10" width="2" height="1" id="px-16" class="c-k"/>
  <rect x="12" y="10" width="9" height="1" id="px-17" class="c-p"/>
  <rect x="21" y="10" width="2" height="1" id="px-18" class="c-k"/>
  <rect x="11" y="11" width="2" height="1" id="px-19" class="c-k"/>
  <rect x="13" y="11" width="7" height="1" id="px-20" class="c-p"/>
  <rect x="20" y="11" width="2" height="1" id="px-21" class="c-k"/>
  <rect x="12" y="12" width="2" height="1" id="px-22" class="c-k"/>
  <rect x="14" y="12" width="5" height="1" id="px-23" class="c-a"/>
  <rect x="19" y="12" width="2" height="1" id="px-24" class="c-k"/>
  <rect x="12" y="13" width="2" height="1" id="px-25" class="c-k"/>
  <rect x="14" y="13" width="5" height="1" id="px-26" class="c-a"/>
  <rect x="19" y="13" width="2" height="1" id="px-27" class="c-k"/>
  <rect x="13" y="14" width="2" height="1" id="px-28" class="c-k"/>
  <rect x="15" y="14" width="3" height="1" id="px-29" class="c-a"/>
  <rect x="18" y="14" width="2" height="1" id="px-30" class="c-k"/>
  <rect x="13" y="15" width="7" height="1" id="px-31" class="c-k"/>
  <rect x="14" y="16" width="5" height="1" id="px-32" class="c-k"/>
  <rect x="13" y="17" width="7" height="1" id="px-33" class="c-k"/>
  <rect x="13" y="18" width="2" height="1" id="px-34" class="c-k"/>
  <rect x="15" y="18" width="1" height="1" id="px-35" class="c-p"/>
  <rect x="16" y="18" width="1" height="1" id="px-36" class="c-a"/>
  <rect x="17" y="18" width="1" height="1" id="px-37" class="c-p"/>
  <rect x="18" y="18" width="2" height="1" id="px-38" class="c-k"/>
  <rect x="12" y="19" width="2" height="1" id="px-39" class="c-k"/>
  <rect x="14" y="19" width="2" height="1" id="px-40" class="c-p"/>
  <rect x="16" y="19" width="1" height="1" id="px-41" class="c-a"/>
  <rect x="17" y="19" width="2" height="1" id="px-42" class="c-p"/>
  <rect x="19" y="19" width="2" height="1" id="px-43" class="c-k"/>
  <rect x="12" y="20" width="2" height="1" id="px-44" class="c-k"/>
  <rect x="14" y="20" width="2" height="1" id="px-45" class="c-p"/>
  <rect x="16" y="20" width="1" height="1" id="px-46" class="c-a"/>
  <rect x="17" y="20" width="2" height="1" id="px-47" class="c-p"/>
  <rect x="19" y="20" width="2" height="1" id="px-48" class="c-k"/>
  <rect x="11" y="21" width="2" height="1" id="px-49" class="c-k"/>
  <rect x="13" y="21" width="7" height="1" id="px-50" class="c-a"/>
  <rect x="20" y="21" width="2" height="1" id="px-51" class="c-k"/>
  <rect x="10" y="22" width="2" height="1" id="px-52" class="c-k"/>
  <rect x="12" y="22" width="9" height="1" id="px-53" class="c-a"/>
  <rect x="21" y="22" width="2" height="1" id="px-54" class="c-k"/>
  <rect x="10" y="23" width="2" height="1" id="px-55" class="c-k"/>
  <rect x="12" y="23" width="9" height="1" id="px-56" class="c-a"/>
  <rect x="21" y="23" width="2" height="1" id="px-57" class="c-k"/>
  <rect x="9" y="24" width="2" height="1" id="px-58" class="c-k"/>
  <rect x="11" y="24" width="11" height="1" id="px-59" class="c-b"/>
  <rect x="22" y="24" width="2" height="1" id="px-60" class="c-k"/>
  <rect x="9" y="25" width="15" height="1" id="px-61" class="c-k"/>
  <rect x="24" y="25" width="1" height="1" id="px-62" class="c-b"/>
  <rect x="8" y="26" width="17" height="1" id="px-63" class="c-k"/>
  <rect x="5" y="27" width="23" height="1" id="px-64" class="c-k"/>
  <rect x="4" y="28" width="25" height="1" id="px-65" class="c-k"/>
  <rect x="4" y="29" width="25" height="1" id="px-66" class="c-k"/>
  <rect x="5" y="30" width="23" height="1" id="px-67" class="c-k"/>
</svg>
